<?xml version="1.0" encoding="utf-8"?>
<!-- Generator: Adobe Illustrator 18.1.1, SVG Export Plug-In . SVG Version: 6.00 Build 0)  -->
<svg version="1.1" id="Layer_1" xmlns="http://www.w3.org/2000/svg" xmlns:xlink="http://www.w3.org/1999/xlink" x="0px" y="0px"
	 viewBox="0 0 600 600" enable-background="new 0 0 600 600" xml:space="preserve">
<g>
	<path fill="#181314" d="M216.4,387.3c0,0-31.5,25.9-52.1,33.9c-20.6,8,0.7-61.7,32.1-79.5C227.8,324,219.8,370,216.4,387.3z"/>
	
		<linearGradient id="SVGID_1_" gradientUnits="userSpaceOnUse" x1="28.2828" y1="450.8935" x2="8.1613" y2="316.8447" gradientTransform="matrix(-0.9924 -0.7334 -0.7334 0.9925 561.8294 139.209)">
		<stop  offset="0" style="stop-color:#181314"/>
		<stop  offset="1" style="stop-color:#413C3D"/>
	</linearGradient>
	<path fill="url(#SVGID_1_)" d="M265.9,460.7h-75.8c-5.1,47.7,14.5,132.4,28.3,110.4c14.5-23.1,31.9-71.8,31.9-71.8s13.3,1.6,23.8,0
		c0,0,17.3,48.7,31.9,71.8c13.9,22,33.4-62.7,28.3-110.4h-75.8H265.9z"/>
	
		<linearGradient id="SVGID_2_" gradientUnits="userSpaceOnUse" x1="-90.8937" y1="40.2335" x2="-9.4437" y2="40.2335" gradientTransform="matrix(2.940000e-02 -0.9996 0.9996 2.930000e-02 291.5177 321.2973)">
		<stop  offset="0" style="stop-color:#181314"/>
		<stop  offset="1" style="stop-color:#413C3D"/>
	</linearGradient>
	<path fill="url(#SVGID_2_)" d="M325.6,332.3c0,0,38.3,53.3,45.7,74.1c7.4,20.8-61.6-2.5-78.5-34.4
		C276,340.1,308.4,328.4,325.6,332.3z"/>
	
		<linearGradient id="SVGID_3_" gradientUnits="userSpaceOnUse" x1="89.8012" y1="290.6534" x2="140.7665" y2="239.6881" gradientTransform="matrix(0.9764 0.2158 -0.2158 0.9764 40.281 -30.8195)">
		<stop  offset="0" style="stop-color:#181314"/>
		<stop  offset="1" style="stop-color:#413C3D"/>
	</linearGradient>
	<path fill="url(#SVGID_3_)" d="M111.1,210.3c0,0-56.2,31.4-49.2,52.4c7,21,31.4,62.6,51-25L111.1,210.3z"/>
	
		<linearGradient id="SVGID_4_" gradientUnits="userSpaceOnUse" x1="90.2572" y1="333.8536" x2="140.4997" y2="323.6788" gradientTransform="matrix(0.933 -0.3598 0.3598 0.933 -110.2501 24.4874)">
		<stop  offset="0" style="stop-color:#181314"/>
		<stop  offset="1" style="stop-color:#413C3D"/>
	</linearGradient>
	<path fill="url(#SVGID_4_)" d="M113.5,242.9c0,0-29.5,57.2-12,70.9c17.5,13.6,60.8,34.8,28.7-49.1L113.5,242.9z"/>
	<path fill="#181314" d="M156.6,408.6c0,0-45,26.4-22.8,51.5c22.2,25.1,32.6-16.5,32.6-16.5s0.1,13.1,11.5,9.3
		c11.4-3.8-5.8-34.8-5.8-34.8S167.2,405.5,156.6,408.6z"/>
	<linearGradient id="SVGID_5_" gradientUnits="userSpaceOnUse" x1="189.8022" y1="399.4551" x2="334.2718" y2="399.4551">
		<stop  offset="0" style="stop-color:#181314"/>
		<stop  offset="1" style="stop-color:#413C3D"/>
	</linearGradient>
	<path fill="url(#SVGID_5_)" d="M334.3,460.2c0-5.4-0.2-10.7-0.6-15.9c-5.3-62.3-25.8-107.6-25.8-107.6h-91.3
		c0,0-20.5,45.3-25.8,107.6c-0.5,5.9-0.9,11.9-1.1,18L334.3,460.2z"/>
	<linearGradient id="SVGID_6_" gradientUnits="userSpaceOnUse" x1="295.8621" y1="575.5528" x2="346.5462" y2="575.5528">
		<stop  offset="0" style="stop-color:#181314"/>
		<stop  offset="1" style="stop-color:#413C3D"/>
	</linearGradient>
	<path fill="url(#SVGID_6_)" d="M295.9,588.2c0,0-0.8-10,7.2-19.8c8-9.9,43.5-8,43.5,19.8H295.9z"/>
	<linearGradient id="SVGID_7_" gradientUnits="userSpaceOnUse" x1="182.1252" y1="575.5528" x2="232.8043" y2="575.5528">
		<stop  offset="0" style="stop-color:#181314"/>
		<stop  offset="1" style="stop-color:#413C3D"/>
	</linearGradient>
	<path fill="url(#SVGID_7_)" d="M232.8,588.2c0,0,0.8-10-7.2-19.8c-8-9.9-43.5-8-43.5,19.8H232.8z"/>
	<linearGradient id="SVGID_8_" gradientUnits="userSpaceOnUse" x1="220.4146" y1="500.5619" x2="303.8494" y2="417.1271">
		<stop  offset="0" style="stop-color:#0F7F69"/>
		<stop  offset="1" style="stop-color:#00AD7A"/>
	</linearGradient>
	<rect x="188" y="449.5" fill="url(#SVGID_8_)" width="148.2" height="18.7"/>
	
		<linearGradient id="SVGID_9_" gradientUnits="userSpaceOnUse" x1="88.1905" y1="521.9495" x2="56.0524" y2="507.3431" gradientTransform="matrix(-0.8778 0.479 0.479 0.8778 104.5985 -29.0137)">
		<stop  offset="0" style="stop-color:#00AD7A"/>
		<stop  offset="1" style="stop-color:#6ABC9B"/>
	</linearGradient>
	<path fill="url(#SVGID_9_)" d="M267,448.7c0,0,45.2-13,39.9,8.2c-5.4,21.2-3.8,14.5-3.8,14.5s-4.5,25.2-37.9-12.1L267,448.7z"/>
	
		<linearGradient id="SVGID_10_" gradientUnits="userSpaceOnUse" x1="300.2531" y1="387.4973" x2="318.2933" y2="347.803" gradientTransform="matrix(0.8486 0.529 -0.529 0.8486 175.3777 -16.8845)">
		<stop  offset="0" style="stop-color:#00AD7A"/>
		<stop  offset="1" style="stop-color:#6ABC9B"/>
	</linearGradient>
	<path fill="url(#SVGID_10_)" d="M264.6,451.4c0,0-44.4-15.6-40.3,5.9c4.1,21.4,3,14.7,3,14.7s3,25.5,38.5-9.9L264.6,451.4z"/>
	<linearGradient id="SVGID_11_" gradientUnits="userSpaceOnUse" x1="137.7324" y1="300.4038" x2="375.9398" y2="62.1965">
		<stop  offset="0" style="stop-color:#181314"/>
		<stop  offset="1" style="stop-color:#413C3D"/>
	</linearGradient>
	<path fill="url(#SVGID_11_)" d="M89.7,181.3c0-93.7,74.8-169.7,167.2-169.7c92.3,0,167.2,76,167.2,169.7
		C424,275,349.2,351,256.8,351C164.5,351,89.7,275,89.7,181.3z"/>
	<linearGradient id="SVGID_12_" gradientUnits="userSpaceOnUse" x1="192.0274" y1="278.7928" x2="359.8696" y2="110.9506">
		<stop  offset="0" style="stop-color:#FCCCB6"/>
		<stop  offset="1" style="stop-color:#FFE6CE"/>
	</linearGradient>
	<path fill="url(#SVGID_12_)" d="M401.2,198.2c5.1-89.5-49-71.8-106.4-71.8s-171.4-12.7-151.1,75.1c0,0,19,104.7,142.6,104.7
		C385.7,306.3,401.2,198.2,401.2,198.2z"/>
	<path fill="#544E4F" d="M286.4,306.3c99.4,0,114.8-108.1,114.8-108.1c5.1-89.5-49-71.8-106.4-71.8c0,0,30.2-7.5,43.1-8.7
		c39.7-3.6,85.3,13.4,68.4,91.4C383.1,316,286.4,306.3,286.4,306.3z"/>
	<linearGradient id="SVGID_13_" gradientUnits="userSpaceOnUse" x1="200.8044" y1="216.233" x2="251.2486" y2="165.7888">
		<stop  offset="0" style="stop-color:#EFEFF0"/>
		<stop  offset="0.1212" style="stop-color:#F5F5F5"/>
		<stop  offset="0.4301" style="stop-color:#FDFDFD"/>
		<stop  offset="1" style="stop-color:#FFFFFF"/>
	</linearGradient>
	<path fill="url(#SVGID_13_)" d="M190.4,191c0-19.7,16-35.7,35.7-35.7s35.7,16,35.7,35.7c0,19.7-16,35.7-35.7,35.7
		S190.4,210.7,190.4,191z"/>
	<linearGradient id="SVGID_14_" gradientUnits="userSpaceOnUse" x1="211.3895" y1="200.4969" x2="237.1199" y2="174.7665">
		<stop  offset="0" style="stop-color:#0F7F69"/>
		<stop  offset="1" style="stop-color:#00AD7A"/>
	</linearGradient>
	<path fill="url(#SVGID_14_)" d="M206.1,187.6c0-10,8.1-18.2,18.2-18.2c10,0,18.2,8.1,18.2,18.2c0,10.1-8.1,18.2-18.2,18.2
		C214.2,205.8,206.1,197.7,206.1,187.6z"/>
	<path fill="#363433" d="M215,187.6c0-5.1,4.2-9.3,9.3-9.3c5.1,0,9.3,4.2,9.3,9.3c0,5.1-4.2,9.3-9.3,9.3
		C219.1,196.9,215,192.8,215,187.6z"/>
	<g>
		<path fill="#FFFFFF" d="M212.9,190.7c-1.7,0-3.1-1.4-3.1-3.1c0-8,6.5-14.5,14.5-14.5c1.7,0,3.1,1.4,3.1,3.1c0,1.7-1.4,3.1-3.1,3.1
			c-4.6,0-8.3,3.7-8.3,8.3C215.9,189.3,214.6,190.7,212.9,190.7z"/>
	</g>
	<linearGradient id="SVGID_15_" gradientUnits="userSpaceOnUse" x1="327.4025" y1="216.2345" x2="377.8496" y2="165.7873">
		<stop  offset="0" style="stop-color:#EFEFF0"/>
		<stop  offset="0.1212" style="stop-color:#F5F5F5"/>
		<stop  offset="0.4301" style="stop-color:#FDFDFD"/>
		<stop  offset="1" style="stop-color:#FFFFFF"/>
	</linearGradient>
	<path fill="url(#SVGID_15_)" d="M317,191c0-19.7,16-35.7,35.7-35.7c19.7,0,35.7,16,35.7,35.7c0,19.7-16,35.7-35.7,35.7
		C332.9,226.7,317,210.7,317,191z"/>
	<linearGradient id="SVGID_16_" gradientUnits="userSpaceOnUse" x1="337.9869" y1="200.4965" x2="363.7163" y2="174.767">
		<stop  offset="0" style="stop-color:#0F7F69"/>
		<stop  offset="1" style="stop-color:#00AD7A"/>
	</linearGradient>
	<path fill="url(#SVGID_16_)" d="M332.7,187.6c0-10,8.2-18.2,18.2-18.2c10.1,0,18.2,8.1,18.2,18.2c0,10.1-8.1,18.2-18.2,18.2
		C340.8,205.8,332.7,197.7,332.7,187.6z"/>
	<path fill="#363433" d="M341.6,187.6c0-5.1,4.1-9.3,9.3-9.3c5.1,0,9.3,4.2,9.3,9.3c0,5.1-4.1,9.3-9.3,9.3
		C345.7,196.9,341.6,192.8,341.6,187.6z"/>
	<g>
		<path fill="#FFFFFF" d="M339.5,190.7c-1.7,0-3.1-1.4-3.1-3.1c0-8,6.5-14.5,14.5-14.5c1.7,0,3.1,1.4,3.1,3.1c0,1.7-1.4,3.1-3.1,3.1
			c-4.6,0-8.3,3.7-8.3,8.3C342.5,189.3,341.2,190.7,339.5,190.7z"/>
	</g>
	<linearGradient id="SVGID_17_" gradientUnits="userSpaceOnUse" x1="156.3781" y1="74.1679" x2="382.6317" y2="74.1679">
		<stop  offset="0" style="stop-color:#413C3D"/>
		<stop  offset="1" style="stop-color:#413C3D"/>
	</linearGradient>
	<path fill="url(#SVGID_17_)" d="M382.6,113.8c0,0-43.2-81-115.7-82.7c-72.5-1.7-110.5,86.3-110.5,86.3s102.1-8.6,130-6.1
		C314.2,113.8,382.6,113.8,382.6,113.8z"/>
	<linearGradient id="SVGID_18_" gradientUnits="userSpaceOnUse" x1="195.8347" y1="148.4018" x2="246.5573" y2="97.6792">
		<stop  offset="0" style="stop-color:#A86840"/>
		<stop  offset="1" style="stop-color:#CB7D4E"/>
	</linearGradient>
	<path fill="url(#SVGID_18_)" d="M260.2,136c0,0-24.8-3-39.3-2.4c-14.5,0.6-34.4,5.5-34.4,5.5s-9.9-12.5-6.5-25.5
		c3.3-13,58.2-16.1,79.2-3.3C259.1,110.2,264,118.1,260.2,136z"/>
	<path fill="#FBC0AA" d="M186.5,139.1c0,0,19.9-4.9,34.4-5.5c14.5-0.6,39.3,2.4,39.3,2.4S214.7,141.6,186.5,139.1z"/>
	<linearGradient id="SVGID_19_" gradientUnits="userSpaceOnUse" x1="332.8502" y1="150.1417" x2="381.3828" y2="101.609">
		<stop  offset="0" style="stop-color:#A86840"/>
		<stop  offset="1" style="stop-color:#CB7D4E"/>
	</linearGradient>
	<path fill="url(#SVGID_19_)" d="M320.7,138c0,0,23.2-2.8,36.7-2.2c13.5,0.6,32.2,5.1,32.2,5.1s9.2-11.7,6.1-23.8
		c-3.1-12.2-54.4-15.1-74-3.1C321.7,113.9,317.1,121.2,320.7,138z"/>
	<path fill="#FBC0AA" d="M320.7,138c0,0,23.2-2.8,36.7-2.2c13.5,0.6,32.2,5.1,32.2,5.1S355.6,142.2,320.7,138z"/>
	<path fill="#2C2829" d="M119.4,159.8c0,0,9.6,96.4,69.8,137.6C189.2,297.4,111.5,261.6,119.4,159.8z"/>
	<path fill="#FBC0AA" d="M210.5,228.6c0,6.6-7.2,12-16,12s-16-5.4-16-12s7.2-12,16-12S210.5,222,210.5,228.6z"/>
	<path fill="#FBC0AA" d="M392.8,226.7c0,4.9-5.3,8.9-11.8,8.9c-6.5,0-11.8-4-11.8-8.9c0-4.9,5.3-8.9,11.8-8.9
		C387.5,217.8,392.8,221.8,392.8,226.7z"/>
	<linearGradient id="SVGID_20_" gradientUnits="userSpaceOnUse" x1="254.2041" y1="470.4666" x2="277.4475" y2="447.2232">
		<stop  offset="0" style="stop-color:#00AD7A"/>
		<stop  offset="1" style="stop-color:#6ABC9B"/>
	</linearGradient>
	<path fill="url(#SVGID_20_)" d="M279.6,465.2c0,4.1-3.3,7.4-7.4,7.4h-12.7c-4.1,0-7.4-3.3-7.4-7.4v-12.7c0-4.1,3.3-7.4,7.4-7.4
		h12.7c4.1,0,7.4,3.3,7.4,7.4V465.2z"/>
	<path fill="#FFFFFF" d="M230.1,254.7c0,0,53.2,12.5,102.9,0c0,0-8.9,10.6-10.8,18.2C322.2,273,272.3,295,230.1,254.7z"/>
	<path fill="#FBC0AA" d="M230.1,254.7c42.2,40.3,92.1,18.2,92.1,18.2s-27.7,17.9-62.6,4.1C233.5,266.9,230.1,254.7,230.1,254.7z"/>
	<g>
		<g>
			<path fill="#292B2B" d="M520.3,424.9c0,5.4-4.4,11.7-9.8,11.7l-218.6,0c-5.4,0-9.8-6.3-9.8-11.7V277.3c0-5.4,4.4-9.8,9.8-9.8
				h218.6c5.4,0,9.8,4.4,9.8,9.8V424.9z"/>
		</g>
		<g>
			<path fill="#292B2B" d="M265.5,439c0,6.5,10.5,6.5,11.7,6.5l124.2,0l121.4,0h5c2.1-0.2,9.3,0,9.3-6.5h0v0v-0.4v-8.4l-271.7,0v8.4
				L265.5,439z"/>
		</g>
		<g>
			<path fill="#D0D1D1" d="M265.4,424.8v10.8c1.1,0.2,2.3,0.2,3.6,0.2h264.5c1.3,0,2.5-0.1,3.6-0.2v-10.8H265.4z"/>
		</g>
		<g>
			<path fill="#9C9CA0" d="M375.5,424.8c-0.1,0.3-0.1,0.5-0.1,0.8c0,2.1,1.7,3.9,3.9,3.9h43.9c2.1,0,3.9-1.7,3.9-3.9
				c0-0.3,0-0.5-0.1-0.8H375.5z"/>
		</g>
		<g>
			<linearGradient id="SVGID_21_" gradientUnits="userSpaceOnUse" x1="313.0391" y1="435.6507" x2="489.757" y2="258.9328">
				<stop  offset="0" style="stop-color:#4B98C7"/>
				<stop  offset="1" style="stop-color:#3CAAE1"/>
			</linearGradient>
			<polygon fill="url(#SVGID_21_)" points="509.7,415.7 293.1,415.7 293.1,278.9 509.7,278.9 			"/>
		</g>
		<g>
			<path fill="#75421F" d="M402.7,274.1c0,0.8-0.6,1.4-1.4,1.4c-0.8,0-1.4-0.6-1.4-1.4c0-0.8,0.6-1.4,1.4-1.4
				C402.1,272.7,402.7,273.3,402.7,274.1z"/>
		</g>
		<g>
			<g>
				<linearGradient id="SVGID_22_" gradientUnits="userSpaceOnUse" x1="293.0881" y1="347.293" x2="509.7105" y2="347.293">
					<stop  offset="0" style="stop-color:#FFFFFF;stop-opacity:0"/>
					<stop  offset="0.8581" style="stop-color:#FFFFFF;stop-opacity:0.1373"/>
					<stop  offset="1" style="stop-color:#FFFFFF;stop-opacity:0.16"/>
				</linearGradient>
				<polygon fill="url(#SVGID_22_)" points="293.1,415.7 293.1,278.9 509.7,278.9 				"/>
			</g>
		</g>
	</g>
	
		<linearGradient id="SVGID_23_" gradientUnits="userSpaceOnUse" x1="528.2055" y1="530.5882" x2="549.5497" y2="483.624" gradientTransform="matrix(-0.2301 0.9731 -0.9732 -0.2302 1019.9628 38.0725)">
		<stop  offset="0" style="stop-color:#181314"/>
		<stop  offset="1" style="stop-color:#413C3D"/>
	</linearGradient>
	<path fill="url(#SVGID_23_)" d="M404.9,459c0,0,20.8,17,21.9-11.4c0.6-16.8-3.8-23.2-27.4-19.9c-23.6,3.3-26.7,11.9-26.6,22.8
		C372.8,461.3,395.3,459.3,404.9,459z"/>
</g>
</svg>
