<?xml version="1.0" encoding="utf-8"?>
<!-- Generator: Adobe Illustrator 18.1.1, SVG Export Plug-In . SVG Version: 6.00 Build 0)  -->
<svg version="1.1" id="Layer_1" xmlns="http://www.w3.org/2000/svg" xmlns:xlink="http://www.w3.org/1999/xlink" x="0px" y="0px"
	 viewBox="0 0 600 600" enable-background="new 0 0 600 600" xml:space="preserve">
<g>
	<path fill="#181314" d="M168.1,383.7c0,0-30.7,25.2-50.7,33c-20,7.8,0.6-60.1,31.3-77.4C179.2,322,171.4,366.8,168.1,383.7z"/>
	
		<linearGradient id="SVGID_1_" gradientUnits="userSpaceOnUse" x1="63.5212" y1="468.6309" x2="43.9191" y2="338.0424" gradientTransform="matrix(-0.9924 -0.7334 -0.7334 0.9925 561.8294 139.209)">
		<stop  offset="0" style="stop-color:#181314"/>
		<stop  offset="1" style="stop-color:#413C3D"/>
	</linearGradient>
	<path fill="url(#SVGID_1_)" d="M216.3,455.1h-73.8c-4.9,46.5,14.1,129,27.6,107.5c14.1-22.5,31-70,31-70s12.9,1.6,23.2,0
		c0,0,16.9,47.5,31,70c13.5,21.4,32.5-61.1,27.6-107.5h-73.8H216.3z"/>
	
		<linearGradient id="SVGID_2_" gradientUnits="userSpaceOnUse" x1="40.3612" y1="107.2444" x2="119.7032" y2="107.2444" gradientTransform="matrix(-0.7071 -0.7071 0.7071 -0.7071 272.9668 491.499)">
		<stop  offset="0" style="stop-color:#181314"/>
		<stop  offset="1" style="stop-color:#413C3D"/>
	</linearGradient>
	<path fill="url(#SVGID_2_)" d="M260.5,335.4c0,0,63.4,8.5,83.1,17.2c19.7,8.6-43,42-76.8,32.6C232.9,375.8,246.2,345,260.5,335.4z"
		/>
	
		<linearGradient id="SVGID_3_" gradientUnits="userSpaceOnUse" x1="46.2828" y1="299.5966" x2="95.9332" y2="249.9463" gradientTransform="matrix(0.9764 0.2158 -0.2158 0.9764 40.281 -30.8195)">
		<stop  offset="0" style="stop-color:#181314"/>
		<stop  offset="1" style="stop-color:#413C3D"/>
	</linearGradient>
	<path fill="url(#SVGID_3_)" d="M65.5,211.2c0,0-54.8,30.6-47.9,51.1c6.8,20.5,30.6,60.9,49.7-24.4L65.5,211.2z"/>
	
		<linearGradient id="SVGID_4_" gradientUnits="userSpaceOnUse" x1="48.6449" y1="316.2353" x2="97.5843" y2="306.3243" gradientTransform="matrix(0.933 -0.3598 0.3598 0.933 -110.2501 24.4874)">
		<stop  offset="0" style="stop-color:#181314"/>
		<stop  offset="1" style="stop-color:#413C3D"/>
	</linearGradient>
	<path fill="url(#SVGID_4_)" d="M67.8,243c0,0-28.7,55.8-11.7,69.1c17,13.3,59.2,33.9,28-47.8L67.8,243z"/>
	<path fill="#181314" d="M109.9,404.4c0,0-43.8,25.7-22.2,50.2c21.6,24.5,31.8-16.1,31.8-16.1s0.1,12.8,11.2,9.1
		c11.1-3.7-5.7-33.9-5.7-33.9S120.2,401.4,109.9,404.4z"/>
	<linearGradient id="SVGID_5_" gradientUnits="userSpaceOnUse" x1="142.166" y1="395.5125" x2="282.9067" y2="395.5125">
		<stop  offset="0" style="stop-color:#181314"/>
		<stop  offset="1" style="stop-color:#413C3D"/>
	</linearGradient>
	<path fill="url(#SVGID_5_)" d="M282.9,454.7c0-5.2-0.2-10.4-0.6-15.5c-5.1-60.7-25.1-104.9-25.1-104.9h-88.9
		c0,0-19.9,44.1-25.1,104.9c-0.5,5.7-0.8,11.6-1.1,17.5L282.9,454.7z"/>
	<linearGradient id="SVGID_6_" gradientUnits="userSpaceOnUse" x1="245.4875" y1="567.0664" x2="294.8605" y2="567.0664">
		<stop  offset="0" style="stop-color:#181314"/>
		<stop  offset="1" style="stop-color:#413C3D"/>
	</linearGradient>
	<path fill="url(#SVGID_6_)" d="M245.5,579.4c0,0-0.8-9.7,7-19.3c7.8-9.6,42.4-7.8,42.4,19.3H245.5z"/>
	<linearGradient id="SVGID_7_" gradientUnits="userSpaceOnUse" x1="134.6872" y1="567.0664" x2="184.0578" y2="567.0664">
		<stop  offset="0" style="stop-color:#181314"/>
		<stop  offset="1" style="stop-color:#413C3D"/>
	</linearGradient>
	<path fill="url(#SVGID_7_)" d="M184,579.4c0,0,0.8-9.7-7-19.3c-7.8-9.6-42.4-7.8-42.4,19.3H184z"/>
	<linearGradient id="SVGID_8_" gradientUnits="userSpaceOnUse" x1="171.9879" y1="494.0098" x2="253.2707" y2="412.727">
		<stop  offset="0" style="stop-color:#0F7F69"/>
		<stop  offset="1" style="stop-color:#00AD7A"/>
	</linearGradient>
	<rect x="140.4" y="444.3" fill="url(#SVGID_8_)" width="144.4" height="18.2"/>
	
		<linearGradient id="SVGID_9_" gradientUnits="userSpaceOnUse" x1="129.2096" y1="492.9594" x2="97.9013" y2="478.7302" gradientTransform="matrix(-0.8778 0.479 0.479 0.8778 104.5985 -29.0137)">
		<stop  offset="0" style="stop-color:#00AD7A"/>
		<stop  offset="1" style="stop-color:#6ABC9B"/>
	</linearGradient>
	<path fill="url(#SVGID_9_)" d="M217.3,443.5c0,0,44.1-12.6,38.8,8c-5.2,20.6-3.7,14.1-3.7,14.1s-4.3,24.6-36.9-11.8L217.3,443.5z"
		/>
	
		<linearGradient id="SVGID_10_" gradientUnits="userSpaceOnUse" x1="255.9932" y1="408.2749" x2="273.5687" y2="369.6032" gradientTransform="matrix(0.8486 0.529 -0.529 0.8486 175.3777 -16.8845)">
		<stop  offset="0" style="stop-color:#00AD7A"/>
		<stop  offset="1" style="stop-color:#6ABC9B"/>
	</linearGradient>
	<path fill="url(#SVGID_10_)" d="M215.1,446.1c0,0-43.3-15.2-39.2,5.7c4,20.9,2.9,14.3,2.9,14.3s2.9,24.8,37.5-9.6L215.1,446.1z"/>
	<linearGradient id="SVGID_11_" gradientUnits="userSpaceOnUse" x1="91.4424" y1="299.0187" x2="323.4981" y2="66.963">
		<stop  offset="0" style="stop-color:#181314"/>
		<stop  offset="1" style="stop-color:#413C3D"/>
	</linearGradient>
	<ellipse fill="url(#SVGID_11_)" cx="207.5" cy="183" rx="162.9" ry="165.3"/>
	<linearGradient id="SVGID_12_" gradientUnits="userSpaceOnUse" x1="144.3337" y1="277.9652" x2="307.8425" y2="114.4564">
		<stop  offset="0" style="stop-color:#FCCCB6"/>
		<stop  offset="1" style="stop-color:#FFE6CE"/>
	</linearGradient>
	<path fill="url(#SVGID_12_)" d="M348.1,199.4c4.9-87.2-47.7-69.9-103.6-69.9s-167-12.3-147.2,73.2c0,0,18.5,102,139,102
		C333,304.7,348.1,199.4,348.1,199.4z"/>
	<path fill="#544E4F" d="M236.2,304.7c96.8,0,111.9-105.3,111.9-105.3c4.9-87.2-47.7-69.9-103.6-69.9c0,0,29.4-7.3,41.9-8.4
		c38.7-3.5,83.1,13,66.6,89C330.4,314.2,236.2,304.7,236.2,304.7z"/>
	<linearGradient id="SVGID_13_" gradientUnits="userSpaceOnUse" x1="152.8837" y1="217.0236" x2="202.0262" y2="167.8811">
		<stop  offset="0" style="stop-color:#EFEFF0"/>
		<stop  offset="0.1212" style="stop-color:#F5F5F5"/>
		<stop  offset="0.4301" style="stop-color:#FDFDFD"/>
		<stop  offset="1" style="stop-color:#FFFFFF"/>
	</linearGradient>
	<circle fill="url(#SVGID_13_)" cx="177.5" cy="192.5" r="34.7"/>
	<linearGradient id="SVGID_14_" gradientUnits="userSpaceOnUse" x1="163.1967" y1="201.6938" x2="188.2622" y2="176.6283">
		<stop  offset="0" style="stop-color:#0F7F69"/>
		<stop  offset="1" style="stop-color:#00AD7A"/>
	</linearGradient>
	<circle fill="url(#SVGID_14_)" cx="175.7" cy="189.2" r="17.7"/>
	<path fill="#363433" d="M166.7,189.2c0-5,4-9,9-9c5,0,9,4.1,9,9c0,5-4,9-9,9C170.7,198.2,166.7,194.2,166.7,189.2z"/>
	<g>
		<path fill="#FFFFFF" d="M164.6,192.2c-1.7,0-3-1.3-3-3c0-7.8,6.3-14.1,14.1-14.1c1.7,0,3,1.3,3,3c0,1.7-1.3,3-3,3
			c-4.5,0-8.1,3.6-8.1,8.1C167.6,190.8,166.3,192.2,164.6,192.2z"/>
	</g>
	<linearGradient id="SVGID_15_" gradientUnits="userSpaceOnUse" x1="276.2141" y1="217.0242" x2="325.3578" y2="167.8805">
		<stop  offset="0" style="stop-color:#EFEFF0"/>
		<stop  offset="0.1212" style="stop-color:#F5F5F5"/>
		<stop  offset="0.4301" style="stop-color:#FDFDFD"/>
		<stop  offset="1" style="stop-color:#FFFFFF"/>
	</linearGradient>
	<path fill="url(#SVGID_15_)" d="M266,192.5c0-19.2,15.6-34.7,34.7-34.7c19.2,0,34.8,15.6,34.8,34.7c0,19.2-15.6,34.7-34.8,34.7
		C281.6,227.2,266,211.6,266,192.5z"/>
	<linearGradient id="SVGID_16_" gradientUnits="userSpaceOnUse" x1="286.5253" y1="201.694" x2="311.5912" y2="176.6281">
		<stop  offset="0" style="stop-color:#0F7F69"/>
		<stop  offset="1" style="stop-color:#00AD7A"/>
	</linearGradient>
	<path fill="url(#SVGID_16_)" d="M281.3,189.2c0-9.8,7.9-17.7,17.7-17.7c9.8,0,17.7,7.9,17.7,17.7c0,9.8-7.9,17.7-17.7,17.7
		C289.3,206.9,281.3,199,281.3,189.2z"/>
	<path fill="#363433" d="M290,189.2c0-5,4-9,9-9c5,0,9,4.1,9,9c0,5-4,9-9,9C294.1,198.2,290,194.2,290,189.2z"/>
	<g>
		<path fill="#FFFFFF" d="M288,192.2c-1.7,0-3-1.3-3-3c0-7.8,6.3-14.1,14.1-14.1c1.7,0,3,1.3,3,3c0,1.7-1.3,3-3,3
			c-4.5,0-8.1,3.6-8.1,8.1C291,190.8,289.6,192.2,288,192.2z"/>
	</g>
	<path fill="#F3AB89" d="M202,257.9c0,0,31.3,8.8,79.7-3.4c0,0-10.9,19.4-12.8,26.9C268.9,281.4,219.9,299.1,202,257.9z"/>
	<path fill="#FBC0AA" d="M202,257.9c18,41.1,66.9,23.5,66.9,23.5s-21.8,12.9-47.2,2.4C202,275.5,202,257.9,202,257.9z"/>
	<linearGradient id="SVGID_17_" gradientUnits="userSpaceOnUse" x1="109.6048" y1="78.6263" x2="330.0168" y2="78.6263">
		<stop  offset="0" style="stop-color:#413C3D"/>
		<stop  offset="1" style="stop-color:#413C3D"/>
	</linearGradient>
	<path fill="url(#SVGID_17_)" d="M330,117.2c0,0-42.1-79-112.7-80.6c-70.7-1.6-107.7,84.1-107.7,84.1s99.5-8.4,126.6-5.9
		C263.4,117.2,330,117.2,330,117.2z"/>
	<linearGradient id="SVGID_18_" gradientUnits="userSpaceOnUse" x1="148.042" y1="150.944" x2="197.4549" y2="101.5311">
		<stop  offset="0" style="stop-color:#A86840"/>
		<stop  offset="1" style="stop-color:#CB7D4E"/>
	</linearGradient>
	<path fill="url(#SVGID_18_)" d="M210.7,138.8c0,0-24.2-2.9-38.3-2.3c-14.1,0.6-33.5,5.3-33.5,5.3s-9.6-12.2-6.4-24.8
		c3.2-12.7,56.7-15.7,77.1-3.2C209.7,113.8,214.5,121.4,210.7,138.8z"/>
	<path fill="#FBC0AA" d="M138.9,141.8c0,0,19.4-4.7,33.5-5.3c14.1-0.6,38.3,2.3,38.3,2.3S166.4,144.3,138.9,141.8z"/>
	<linearGradient id="SVGID_19_" gradientUnits="userSpaceOnUse" x1="281.5212" y1="152.6379" x2="328.7995" y2="105.3595">
		<stop  offset="0" style="stop-color:#A86840"/>
		<stop  offset="1" style="stop-color:#CB7D4E"/>
	</linearGradient>
	<path fill="url(#SVGID_19_)" d="M269.7,140.8c0,0,22.6-2.7,35.8-2.2c13.2,0.6,31.3,5,31.3,5s9-11.4,6-23.2c-3-11.9-53-14.7-72.1-3
		C270.6,117.3,266.2,124.5,269.7,140.8z"/>
	<path fill="#FBC0AA" d="M269.7,140.8c0,0,22.6-2.7,35.8-2.2c13.2,0.6,31.3,5,31.3,5S303.7,144.9,269.7,140.8z"/>
	<path fill="#2C2829" d="M73.6,162c0,0,9.4,94,68,134C141.6,296.1,65.8,261.3,73.6,162z"/>
	<ellipse fill="#FBC0AA" cx="146.7" cy="229.1" rx="15.6" ry="11.7"/>
	<path fill="#FBC0AA" d="M339.9,227.2c0,4.8-5.2,8.6-11.5,8.6c-6.4,0-11.5-3.9-11.5-8.6s5.2-8.6,11.5-8.6
		C334.7,218.6,339.9,222.4,339.9,227.2z"/>
	<linearGradient id="SVGID_20_" gradientUnits="userSpaceOnUse" x1="204.904" y1="464.6915" x2="227.5491" y2="442.0464">
		<stop  offset="0" style="stop-color:#00AD7A"/>
		<stop  offset="1" style="stop-color:#6ABC9B"/>
	</linearGradient>
	<path fill="url(#SVGID_20_)" d="M229.7,459.6c0,4-3.2,7.3-7.2,7.3H210c-4,0-7.3-3.2-7.3-7.3v-12.4c0-4,3.3-7.3,7.3-7.3h12.4
		c4,0,7.2,3.2,7.2,7.3V459.6z"/>
	
		<linearGradient id="SVGID_21_" gradientUnits="userSpaceOnUse" x1="231.9844" y1="340.9715" x2="259.8544" y2="279.6486" gradientTransform="matrix(0.7483 -0.6633 0.6634 0.7482 -40.664 261.964)">
		<stop  offset="0" style="stop-color:#181314"/>
		<stop  offset="1" style="stop-color:#413C3D"/>
	</linearGradient>
	<path fill="url(#SVGID_21_)" d="M370.3,303.8c-2.7-1.5-5.4-1.1-7.8-0.1c1.1-5,0.2-9.8-7.3-9.5c-9.7,0.4-16.2,14.4-19.7,24.9
		c-1.7-7.6-5.7-13.3-14.2-8.2c-18.6,11.1,4.6,47.5,4.6,47.5c2.7,3.1,7.9,5.7,12.2,7.4c4.4,1.8,9.3,1.6,13.5-0.6
		C389.9,345.7,384.6,311.6,370.3,303.8z"/>
	<path fill="#181314" d="M342.5,325.8c0,0,9.4,1.3,17.8,8.6C360.3,334.4,356.7,319.7,342.5,325.8z"/>
	<g>
		<path fill="#F37576" d="M248.7,260.2c-29.2,2.7-46.8-2.3-46.8-2.3c14.6,33.5,49.8,28,62.4,24.8C263,277,259.3,267.7,248.7,260.2z"
			/>
	</g>
	<path fill="#E8E8E9" d="M493.6,27.9c-53-8.2-100.6,15.9-106.4,53.7c-4.4,28.4,16.2,56.5,49.2,72.2c-5,10.3-14.6,28.3-24.8,38.4
		c0,0,43.2,0.8,67.9-26.6c50.1,5.1,94-18.4,99.5-54.5C584.9,73.3,546.6,36,493.6,27.9z"/>
	<g>
		<path fill="#505053" d="M443.7,115c-0.1,0.6-0.4,1-0.9,1.2c-0.5,0.2-1,0.2-1.6,0.1c-0.4-0.1-0.8-0.2-1.2-0.4
			c-0.4-0.2-0.8-0.3-1.1-0.5c-0.6-0.3-1.1-0.7-1.4-1c-0.3-0.4-0.5-0.7-0.6-1.2c-0.1-0.4-0.1-0.8-0.1-1.3c0.1-0.4,0.1-0.9,0.2-1.5
			c0-0.2,0.1-0.3,0.1-0.4c0-0.1,0-0.3,0.1-0.4c0.3-1.8,0.6-3.7,1-5.6c0.3-1.9,0.7-3.7,1.1-5.5c0.2-0.9,0.4-1.8,0.6-2.7
			c0.2-0.9,0.4-1.8,0.7-2.7c0.2-0.9,0.5-1.8,0.7-2.7c0.2-0.9,0.4-1.8,0.6-2.7c0-0.2,0.1-0.4,0.1-0.5c0-0.2,0-0.4,0-0.6
			c-1.1,1-2.1,2.2-3,3.5c-0.9,1.3-1.8,2.7-2.6,4.2c-0.8,1.5-1.6,2.9-2.2,4.4c-0.7,1.5-1.3,2.9-1.8,4.3l-0.4,1
			c-0.4,1.1-0.8,2.1-1.2,3.3c-0.4,1.1-0.7,2.2-1,3.4c-0.1,0.5-0.1,1-0.1,1.6c0,0.3,0,0.5,0,0.8c0,0.2,0,0.5-0.1,0.9
			c-0.2,0.8-0.5,1.2-0.9,1.4c-0.4,0.2-1,0.2-1.6,0.1c-0.4-0.1-0.8-0.2-1.2-0.4c-0.4-0.2-0.9-0.4-1.2-0.6c-0.4-0.2-0.8-0.5-1.1-0.8
			c-0.3-0.3-0.6-0.7-0.7-1c-0.1-0.5,0-1.6,0.2-3.4c0.2-1.8,0.5-4,1-6.7c0.4-2.6,1-5.6,1.6-8.9c0.6-3.3,1.2-6.6,1.9-10.1
			c0.7-3.4,1.3-6.9,2-10.2c0.7-3.4,1.3-6.5,1.9-9.3c0.6-2.8,1.1-5.3,1.5-7.4c0.4-2.1,0.7-3.6,0.9-4.4c0.1-0.6,0.4-1.2,0.6-1.7
			c0.3-0.5,0.8-0.6,1.7-0.4c0.8,0.2,1.6,0.6,2.3,1.1c0.7,0.6,1.1,1.3,1.2,2.2c0,0.1,0,0.7-0.2,1.6c-0.1,0.9-0.3,2.1-0.6,3.5
			c-0.2,1.4-0.5,3-0.9,4.8c-0.3,1.8-0.7,3.7-1.1,5.7c-0.4,1.9-0.7,3.9-1.1,5.9c-0.4,2-0.7,3.8-1,5.5l-1.3,7c0.6-0.9,1.3-1.8,2.1-2.7
			c0.8-0.9,1.7-1.8,2.6-2.5c0.9-0.7,1.9-1.3,3-1.6c1.1-0.4,2.1-0.4,3.3-0.2c1.4,0.3,2.4,0.9,3,1.8c0.6,0.9,1,1.9,1.2,3.1
			c0.1,1.2,0.1,2.4,0,3.6c-0.2,1.2-0.4,2.4-0.6,3.4c-0.1,0.6-0.3,1.2-0.4,1.8c-0.1,0.6-0.3,1.2-0.5,1.8c-0.2,0.6-0.3,1.2-0.5,1.8
			c-0.2,0.6-0.3,1.2-0.4,1.9c-0.5,2.2-0.9,4.4-1.3,6.7c-0.4,2.3-0.7,4.6-0.8,6.9l-0.1,0.7c0,0.2,0,0.4,0,0.7
			C443.8,114.5,443.8,114.8,443.7,115z"/>
		<path fill="#505053" d="M467.4,113.9c-0.2,0.9-0.7,1.9-1.4,2.7c-0.7,0.9-1.6,1.7-2.6,2.3c-1,0.6-2.1,1.1-3.3,1.4
			c-1.2,0.3-2.3,0.3-3.3,0.1c-1.5-0.3-2.7-0.9-3.6-1.7c-0.9-0.8-1.7-1.8-2.3-3c-0.6-1.2-1-2.4-1.2-3.8c-0.2-1.4-0.3-2.7-0.3-4.1
			c0-1.4,0.1-2.8,0.3-4.1c0.2-1.4,0.4-2.6,0.7-3.7c0.2-0.9,0.5-2,0.9-3.3c0.4-1.3,0.9-2.6,1.5-3.9c0.6-1.3,1.2-2.6,2-3.9
			c0.8-1.2,1.6-2.3,2.6-3.2c0.9-0.9,2-1.6,3.1-2c1.1-0.4,2.3-0.5,3.6-0.2c1,0.2,1.9,0.6,2.6,1.2c0.7,0.6,1.3,1.3,1.7,2.1
			c0.4,0.8,0.6,1.7,0.8,2.6c0.1,0.9,0.1,1.9-0.2,2.8c-0.3,1.2-0.9,2.5-1.7,3.8c-0.9,1.3-1.9,2.6-3.1,3.7c-1.2,1.2-2.5,2.1-3.8,3
			c-1.4,0.8-2.6,1.4-3.9,1.7c-0.1,0.6-0.1,1.4-0.2,2.6c0,1.1,0,2.3,0.1,3.4c0.1,1.1,0.3,2.2,0.6,3c0.3,0.9,0.7,1.4,1.4,1.5
			c0.3,0.1,0.6,0,0.9-0.1c0.3-0.1,0.5-0.3,0.8-0.6c0.3-0.3,0.5-0.6,0.7-0.9c0.2-0.3,0.4-0.7,0.6-1l0.4-0.6c0.1-0.1,0.1-0.1,0.2-0.2
			c0,0,0.1-0.1,0.1-0.1c0.3-0.4,0.6-0.7,0.9-1c0.3-0.3,0.6-0.5,1.1-0.7l0,0c0.2-0.1,0.3-0.1,0.4-0.1c0.1,0,0.3,0,0.4,0.1
			c0.3,0.1,0.7,0.3,1.1,0.6c0.4,0.3,0.7,0.7,1,1.1c0.3,0.4,0.5,0.8,0.6,1.3C467.4,113.1,467.4,113.5,467.4,113.9z M462.7,91
			c0.1-0.3,0.1-0.7,0.2-1c0-0.4,0-0.7,0-0.9c-0.6,0.4-1.1,1-1.6,1.6c-0.5,0.7-0.9,1.4-1.3,2.1c-0.4,0.8-0.8,1.5-1.1,2.3
			c-0.3,0.8-0.6,1.5-0.8,2.2c1-0.8,2-1.7,2.9-2.8C461.8,93.4,462.4,92.3,462.7,91z"/>
		<path fill="#505053" d="M479.3,127c-0.1,0.4-0.3,0.8-0.6,1c-0.3,0.2-0.6,0.4-1,0.5c-0.4,0.1-0.8,0.1-1.2,0.1
			c-0.4,0-0.8-0.1-1.1-0.1c-1.1-0.2-2-0.8-2.7-1.6c-0.7-0.8-1.2-1.8-1.6-2.9c-0.4-1.1-0.6-2.4-0.7-3.7c-0.1-1.4-0.1-2.7-0.1-4
			c0-1.3,0.1-2.6,0.3-3.8c0.1-1.2,0.3-2.2,0.4-3.1c0.4-3,0.8-6,1.4-9c0.6-3,1.2-6,1.8-9c1.8-8.1,3.9-16,6.2-23.8
			c0-0.1,0.1-0.3,0.1-0.4c0-0.2,0.1-0.3,0.1-0.5c0.2-0.7,0.4-1.4,0.6-2.3c0.2-0.9,0.5-1.7,0.7-2.5c0.3-0.8,0.5-1.6,0.7-2.3
			c0.2-0.7,0.4-1.2,0.6-1.4l0,0c0.2-0.4,0.5-0.7,0.7-0.9c0.3-0.2,0.7-0.2,1.2-0.1c1.1,0.3,2,0.8,2.6,1.8c0.6,0.9,0.8,2,0.5,3.1
			c-0.1,0.3-0.1,0.5-0.2,0.7c-0.1,0.2-0.1,0.5-0.2,0.7c-0.1,0.2-0.1,0.4-0.2,0.6c-0.1,0.2-0.1,0.4-0.1,0.5c-0.4,1.2-0.7,2.4-1,3.6
			c-0.3,1.2-0.6,2.4-1,3.6c-0.8,2.7-1.5,5.3-2.2,8c-0.7,2.7-1.3,5.4-1.9,8.1c-0.3,1.2-0.6,2.7-1,4.6c-0.4,1.9-0.8,4-1.2,6.2
			c-0.4,2.2-0.8,4.5-1.1,6.9c-0.4,2.4-0.6,4.7-0.8,6.9c-0.2,2.2-0.3,4.2-0.3,6c0,1.8,0.2,3.3,0.5,4.3c0.3,0.2,0.5,0.4,0.7,0.8
			c0.2,0.3,0.4,0.7,0.5,1.1c0.1,0.4,0.2,0.8,0.3,1.2C479.3,126.4,479.3,126.7,479.3,127z"/>
		<path fill="#505053" d="M492.5,130c-0.1,0.4-0.3,0.8-0.6,1c-0.3,0.2-0.6,0.4-1,0.5c-0.4,0.1-0.8,0.1-1.2,0.1
			c-0.4,0-0.8-0.1-1.1-0.1c-1.1-0.2-2-0.8-2.7-1.6c-0.7-0.8-1.2-1.8-1.6-2.9c-0.4-1.1-0.6-2.4-0.7-3.7c-0.1-1.4-0.1-2.7-0.1-4
			c0-1.3,0.1-2.6,0.3-3.8c0.1-1.2,0.3-2.2,0.4-3.1c0.4-3,0.8-6,1.4-9c0.6-3,1.2-6,1.8-9c1.8-8.1,3.9-16,6.2-23.8
			c0-0.1,0.1-0.3,0.1-0.4c0-0.2,0.1-0.3,0.1-0.5c0.2-0.7,0.4-1.4,0.6-2.3c0.2-0.9,0.5-1.7,0.7-2.5c0.3-0.8,0.5-1.6,0.7-2.3
			c0.2-0.7,0.4-1.2,0.6-1.4l0,0c0.2-0.4,0.5-0.7,0.7-0.9c0.3-0.2,0.7-0.2,1.2-0.1c1.1,0.3,2,0.8,2.6,1.8c0.6,0.9,0.8,2,0.5,3.1
			c-0.1,0.3-0.1,0.5-0.2,0.7c-0.1,0.2-0.1,0.5-0.2,0.7c-0.1,0.2-0.2,0.4-0.2,0.6c-0.1,0.2-0.1,0.4-0.1,0.5c-0.4,1.2-0.7,2.4-1,3.6
			c-0.3,1.2-0.6,2.4-1,3.6c-0.8,2.7-1.5,5.3-2.2,8c-0.7,2.7-1.3,5.4-1.9,8.1c-0.3,1.2-0.6,2.7-1,4.6c-0.4,1.9-0.8,4-1.2,6.2
			c-0.4,2.2-0.8,4.5-1.1,6.9c-0.4,2.4-0.6,4.7-0.8,6.9c-0.2,2.2-0.3,4.2-0.3,6c0,1.8,0.2,3.3,0.5,4.3c0.3,0.2,0.5,0.4,0.7,0.8
			c0.2,0.3,0.4,0.7,0.5,1.1c0.1,0.4,0.2,0.8,0.3,1.2C492.6,129.3,492.6,129.7,492.5,130z"/>
		<path fill="#505053" d="M518.9,114.2c-0.6,2.7-1.4,5.4-2.5,8c-1.1,2.6-2.6,5-4.5,7.1c-0.6,0.6-1.3,1.2-2,1.8
			c-0.7,0.5-1.5,1-2.3,1.4c-0.8,0.4-1.6,0.7-2.5,0.8c-0.9,0.2-1.7,0.1-2.6-0.1c-1.4-0.3-2.5-0.9-3.4-1.8c-0.9-0.9-1.6-1.9-2.1-3.1
			c-0.5-1.2-0.8-2.5-1-4c-0.2-1.4-0.3-2.9-0.2-4.3c0-1.5,0.2-2.9,0.3-4.2c0.2-1.3,0.4-2.5,0.6-3.5c0.3-1.1,0.6-2.4,1-3.7
			c0.4-1.3,0.9-2.7,1.4-4c0.6-1.4,1.2-2.7,1.9-4c0.7-1.3,1.5-2.5,2.4-3.5c0.9-1.1,1.9-2,3-2.7c1.1-0.8,2.3-1.3,3.6-1.6l0,0
			c1.1-0.3,2.2-0.4,3.2-0.1c0.6,0.1,1.1,0.4,1.4,0.7c0.3,0.3,0.3,0.8,0.2,1.4c1.7,0.7,2.9,1.8,3.6,3.4c0.8,1.6,1.2,3.3,1.4,5.3
			c0.2,1.9,0.2,3.8,0,5.8C519.4,111.1,519.2,112.8,518.9,114.2z M510.8,100c-0.5-0.1-1-0.4-1.4-0.9c-0.8,0.8-1.5,1.7-2.2,2.8
			c-0.7,1.1-1.3,2.2-1.8,3.4c-0.5,1.2-1,2.4-1.3,3.6c-0.4,1.2-0.7,2.4-0.9,3.5c-0.2,0.9-0.4,2.1-0.6,3.5c-0.2,1.4-0.4,2.9-0.4,4.4
			c-0.1,1.5,0,2.9,0.2,4.3c0.2,1.4,0.6,2.4,1.3,3.2c1.1-0.3,2.1-1.1,3-2.2c0.9-1.1,1.7-2.3,2.4-3.7c0.7-1.4,1.3-2.8,1.8-4.3
			c0.5-1.5,0.8-2.7,1.1-3.8c0.2-0.8,0.4-1.8,0.5-3.1c0.2-1.3,0.3-2.6,0.4-3.9c0.1-1.4,0-2.6-0.1-3.9c-0.1-1.2-0.4-2.2-0.9-2.9
			C511.6,100.1,511.2,100.1,510.8,100z"/>
		<path fill="#505053" d="M522.4,129.9c0.1-0.3,0.2-0.5,0.5-0.7c0.3-0.1,0.6-0.2,0.9-0.2c0.3,0,0.7,0,1,0.1c0.3,0.1,0.6,0.1,0.9,0.2
			c0.3,0.1,0.7,0.2,1.1,0.3c0.4,0.1,0.8,0.3,1.2,0.5c0.3,0.2,0.6,0.4,0.8,0.7c0.2,0.3,0.3,0.7,0.2,1.1c0,0.2-0.1,0.5-0.3,1
			c-0.1,0.5-0.3,1.1-0.4,1.7c-0.1,0.6-0.3,1.1-0.5,1.6c-0.2,0.5-0.3,0.7-0.3,0.8c-0.3,0.3-0.6,0.4-1,0.4c-0.4,0-0.8-0.1-1.2-0.2
			c-0.9-0.2-1.6-0.4-2.1-0.6c-0.4-0.2-0.7-0.5-0.9-0.8c-0.1-0.3-0.2-0.8-0.2-1.3c0-0.5,0.1-1.2,0.1-2c0-0.4,0-0.8,0-1.2
			C522.3,130.8,522.3,130.3,522.4,129.9z M531.5,123.8c-0.3,1.4-1.1,1.9-2.3,1.7c-0.4-0.1-0.8-0.2-1.4-0.4c-0.5-0.2-1.1-0.5-1.6-0.8
			c-0.5-0.3-1-0.7-1.4-1c-0.4-0.4-0.7-0.7-0.8-1.1c-0.2-0.5-0.2-1-0.1-1.5c0.1-0.5,0.2-1,0.3-1.5c1.4-7,2.7-14,3.9-21
			c1.2-7,2.5-14,3.8-21c0.3-1.5,0.5-3,0.8-4.5c0.3-1.5,0.6-3,0.9-4.5c0.2-0.7,0.4-1.2,0.6-1.6c0.2-0.3,0.8-0.4,1.6-0.2
			c0.4,0.1,0.8,0.2,1.3,0.5c0.4,0.2,0.9,0.5,1.2,0.8c0.4,0.3,0.7,0.6,1,1c0.3,0.4,0.4,0.8,0.5,1.2c0,0.3,0,1.1-0.2,2.6
			c-0.2,1.4-0.4,3.3-0.8,5.5c-0.3,2.2-0.7,4.8-1.2,7.6c-0.5,2.8-0.9,5.7-1.4,8.8c-0.5,3-1,6-1.5,9c-0.5,3-0.9,5.7-1.4,8.3
			c-0.4,2.5-0.8,4.8-1.1,6.7c-0.3,1.9-0.5,3.3-0.6,4.2c-0.1,0.3-0.1,0.5-0.1,0.8C531.6,123.3,531.5,123.6,531.5,123.8z"/>
	</g>
</g>
</svg>
