<?xml version="1.0" encoding="utf-8"?>
<!-- Generator: Adobe Illustrator 18.1.1, SVG Export Plug-In . SVG Version: 6.00 Build 0)  -->
<svg version="1.1" id="Layer_1" xmlns="http://www.w3.org/2000/svg" xmlns:xlink="http://www.w3.org/1999/xlink" x="0px" y="0px"
	 viewBox="0 0 600 600" enable-background="new 0 0 600 600" xml:space="preserve">
<g>
	
		<linearGradient id="SVGID_1_" gradientUnits="userSpaceOnUse" x1="69.163" y1="76.5768" x2="150.8885" y2="76.5768" gradientTransform="matrix(0.7071 -0.7071 -0.7071 -0.7071 226.6191 491.499)">
		<stop  offset="0" style="stop-color:#181314"/>
		<stop  offset="1" style="stop-color:#413C3D"/>
	</linearGradient>
	<path fill="url(#SVGID_1_)" d="M282.9,335.2c0,0-65.3,8.8-85.6,17.7c-20.3,8.9,44.2,43.3,79.2,33.6
		C311.4,376.8,297.6,345,282.9,335.2z"/>
	
		<linearGradient id="SVGID_2_" gradientUnits="userSpaceOnUse" x1="326.7115" y1="363.7322" x2="350.0078" y2="312.4727" gradientTransform="matrix(-0.9993 3.660000e-02 3.660000e-02 0.9994 522.0794 -1.5799)">
		<stop  offset="0" style="stop-color:#181314"/>
		<stop  offset="0.3594" style="stop-color:#2F2A2B"/>
		<stop  offset="0.6999" style="stop-color:#3C3738"/>
		<stop  offset="1" style="stop-color:#413C3D"/>
	</linearGradient>
	<path fill="url(#SVGID_2_)" d="M212,362.3c0,0,13.7-42.9-1.8-48.7c-15.5-5.8-12.6,24.8-12.6,24.8s-21.8,6.2-24,27.4
		C171.3,387.1,206.7,386.6,212,362.3z"/>
	
		<linearGradient id="SVGID_3_" gradientUnits="userSpaceOnUse" x1="-8.4104" y1="423.9471" x2="-28.6021" y2="289.4309" gradientTransform="matrix(-0.9924 -0.7334 -0.7334 0.9925 561.8294 139.209)">
		<stop  offset="0" style="stop-color:#181314"/>
		<stop  offset="1" style="stop-color:#413C3D"/>
	</linearGradient>
	<path fill="url(#SVGID_3_)" d="M322.3,460.5h-76c-5.1,47.9,14.5,132.9,28.4,110.8c14.6-23.1,32-72.1,32-72.1s13.3,1.6,23.9,0
		c0,0,17.4,48.9,32,72.1c13.9,22.1,33.5-62.9,28.4-110.8h-76H322.3z"/>
	
		<linearGradient id="SVGID_4_" gradientUnits="userSpaceOnUse" x1="-34.8725" y1="180.6129" x2="46.8524" y2="180.6129" gradientTransform="matrix(-0.7071 -0.7071 0.7071 -0.7071 272.9668 491.499)">
		<stop  offset="0" style="stop-color:#181314"/>
		<stop  offset="1" style="stop-color:#413C3D"/>
	</linearGradient>
	<path fill="url(#SVGID_4_)" d="M363.8,335.2c0,0,65.3,8.8,85.6,17.7c20.3,8.9-44.2,43.3-79.1,33.6
		C335.3,376.8,349.1,345,363.8,335.2z"/>
	
		<linearGradient id="SVGID_5_" gradientUnits="userSpaceOnUse" x1="143.9997" y1="277.7843" x2="195.1443" y2="226.6397" gradientTransform="matrix(0.9764 0.2158 -0.2158 0.9764 40.281 -30.8195)">
		<stop  offset="0" style="stop-color:#181314"/>
		<stop  offset="1" style="stop-color:#413C3D"/>
	</linearGradient>
	<path fill="url(#SVGID_5_)" d="M167,209.2c0,0-56.4,31.5-49.4,52.6c7,21.1,31.5,62.8,51.2-25.1L167,209.2z"/>
	
		<linearGradient id="SVGID_6_" gradientUnits="userSpaceOnUse" x1="142.5944" y1="353.2211" x2="193.0096" y2="343.0113" gradientTransform="matrix(0.933 -0.3598 0.3598 0.933 -110.2501 24.4874)">
		<stop  offset="0" style="stop-color:#181314"/>
		<stop  offset="1" style="stop-color:#413C3D"/>
	</linearGradient>
	<path fill="url(#SVGID_6_)" d="M169.3,241.9c0,0-29.6,57.4-12.1,71.1c17.5,13.7,61,34.9,28.8-49.2L169.3,241.9z"/>
	<linearGradient id="SVGID_7_" gradientUnits="userSpaceOnUse" x1="245.9329" y1="399.0318" x2="390.9066" y2="399.0318">
		<stop  offset="0" style="stop-color:#181314"/>
		<stop  offset="1" style="stop-color:#413C3D"/>
	</linearGradient>
	<path fill="url(#SVGID_7_)" d="M390.9,460c0-5.4-0.2-10.8-0.6-16c-5.3-62.5-25.8-108-25.8-108h-91.6c0,0-20.5,45.5-25.8,108
		c-0.5,5.9-0.9,12-1.1,18L390.9,460z"/>
	<linearGradient id="SVGID_8_" gradientUnits="userSpaceOnUse" x1="352.366" y1="575.7568" x2="403.2242" y2="575.7568">
		<stop  offset="0" style="stop-color:#181314"/>
		<stop  offset="1" style="stop-color:#413C3D"/>
	</linearGradient>
	<path fill="url(#SVGID_8_)" d="M352.4,588.4c0,0-0.9-10,7.2-19.9c8.1-9.9,43.6-8,43.6,19.9H352.4z"/>
	<linearGradient id="SVGID_9_" gradientUnits="userSpaceOnUse" x1="238.2282" y1="575.7568" x2="289.0861" y2="575.7568">
		<stop  offset="0" style="stop-color:#181314"/>
		<stop  offset="1" style="stop-color:#413C3D"/>
	</linearGradient>
	<path fill="url(#SVGID_9_)" d="M289.1,588.4c0,0,0.8-10-7.2-19.9c-8-9.9-43.6-8-43.6,19.9H289.1z"/>
	<linearGradient id="SVGID_10_" gradientUnits="userSpaceOnUse" x1="276.6503" y1="500.4948" x2="360.3792" y2="416.766">
		<stop  offset="0" style="stop-color:#0F7F69"/>
		<stop  offset="1" style="stop-color:#00AD7A"/>
	</linearGradient>
	<rect x="244.2" y="449.3" fill="url(#SVGID_10_)" width="148.7" height="18.7"/>
	
		<linearGradient id="SVGID_11_" gradientUnits="userSpaceOnUse" x1="38.5731" y1="548.8336" x2="6.3195" y2="534.1747" gradientTransform="matrix(-0.8778 0.479 0.479 0.8778 104.5985 -29.0137)">
		<stop  offset="0" style="stop-color:#00AD7A"/>
		<stop  offset="1" style="stop-color:#6ABC9B"/>
	</linearGradient>
	<path fill="url(#SVGID_11_)" d="M323.4,448.5c0,0,45.4-13,40,8.2c-5.4,21.2-3.8,14.5-3.8,14.5s-4.5,25.3-38-12.1L323.4,448.5z"/>
	
		<linearGradient id="SVGID_12_" gradientUnits="userSpaceOnUse" x1="347.9021" y1="357.5952" x2="366.0079" y2="317.7567" gradientTransform="matrix(0.8486 0.529 -0.529 0.8486 175.3777 -16.8845)">
		<stop  offset="0" style="stop-color:#00AD7A"/>
		<stop  offset="1" style="stop-color:#6ABC9B"/>
	</linearGradient>
	<path fill="url(#SVGID_12_)" d="M321,451.1c0,0-44.6-15.6-40.4,5.9c4.2,21.5,3,14.7,3,14.7s3,25.5,38.6-9.9L321,451.1z"/>
	<linearGradient id="SVGID_13_" gradientUnits="userSpaceOnUse" x1="193.6802" y1="299.6297" x2="432.7226" y2="60.5874">
		<stop  offset="0" style="stop-color:#181314"/>
		<stop  offset="1" style="stop-color:#413C3D"/>
	</linearGradient>
	<path fill="url(#SVGID_13_)" d="M145.4,180.1c0-94.1,75.1-170.3,167.8-170.3C405.9,9.8,481,86.1,481,180.1s-75.1,170.3-167.7,170.3
		C220.6,350.4,145.4,274.2,145.4,180.1z"/>
	<linearGradient id="SVGID_14_" gradientUnits="userSpaceOnUse" x1="248.1666" y1="277.9402" x2="416.5925" y2="109.5143">
		<stop  offset="0" style="stop-color:#FCCCB6"/>
		<stop  offset="1" style="stop-color:#FFE6CE"/>
	</linearGradient>
	<path fill="url(#SVGID_14_)" d="M458.1,197.1c5.1-89.8-49.1-72-106.7-72c-57.6,0-172-12.7-151.6,75.4c0,0,19.1,105,143.1,105
		C442.5,305.5,458.1,197.1,458.1,197.1z"/>
	<path fill="#544E4F" d="M342.8,305.5c99.7,0,115.2-108.4,115.2-108.4c5.1-89.8-49.1-72-106.7-72c0,0,30.3-7.5,43.2-8.7
		c39.8-3.6,85.6,13.4,68.6,91.7C439.9,315.2,342.8,305.5,342.8,305.5z"/>
	<linearGradient id="SVGID_15_" gradientUnits="userSpaceOnUse" x1="256.9734" y1="215.1676" x2="307.5956" y2="164.5455">
		<stop  offset="0" style="stop-color:#EFEFF0"/>
		<stop  offset="0.1212" style="stop-color:#F5F5F5"/>
		<stop  offset="0.4301" style="stop-color:#FDFDFD"/>
		<stop  offset="1" style="stop-color:#FFFFFF"/>
	</linearGradient>
	<path fill="url(#SVGID_15_)" d="M246.5,189.9c0-19.8,16-35.8,35.8-35.8c19.8,0,35.8,16,35.8,35.8c0,19.8-16,35.8-35.8,35.8
		C262.5,225.7,246.5,209.6,246.5,189.9z"/>
	<linearGradient id="SVGID_16_" gradientUnits="userSpaceOnUse" x1="267.5957" y1="199.3774" x2="293.4171" y2="173.5561">
		<stop  offset="0" style="stop-color:#0F7F69"/>
		<stop  offset="1" style="stop-color:#00AD7A"/>
	</linearGradient>
	<path fill="url(#SVGID_16_)" d="M262.2,186.5c0-10.1,8.2-18.3,18.3-18.3c10.1,0,18.3,8.2,18.3,18.3c0,10.1-8.2,18.3-18.3,18.3
		C270.4,204.7,262.2,196.5,262.2,186.5z"/>
	<circle fill="#363433" cx="280.5" cy="186.5" r="9.3"/>
	<g>
		<path fill="#FFFFFF" d="M269.1,189.6c-1.7,0-3.1-1.4-3.1-3.1c0-8,6.5-14.5,14.5-14.5c1.7,0,3.1,1.4,3.1,3.1c0,1.7-1.4,3.1-3.1,3.1
			c-4.6,0-8.3,3.7-8.3,8.3C272.2,188.2,270.8,189.6,269.1,189.6z"/>
	</g>
	<linearGradient id="SVGID_17_" gradientUnits="userSpaceOnUse" x1="384.012" y1="215.1675" x2="434.6338" y2="164.5457">
		<stop  offset="0" style="stop-color:#EFEFF0"/>
		<stop  offset="0.1212" style="stop-color:#F5F5F5"/>
		<stop  offset="0.4301" style="stop-color:#FDFDFD"/>
		<stop  offset="1" style="stop-color:#FFFFFF"/>
	</linearGradient>
	<path fill="url(#SVGID_17_)" d="M373.5,189.9c0-19.8,16-35.8,35.8-35.8c19.8,0,35.8,16,35.8,35.8c0,19.8-16,35.8-35.8,35.8
		C389.6,225.7,373.5,209.6,373.5,189.9z"/>
	<linearGradient id="SVGID_18_" gradientUnits="userSpaceOnUse" x1="394.6372" y1="199.3763" x2="420.4562" y2="173.5572">
		<stop  offset="0" style="stop-color:#0F7F69"/>
		<stop  offset="1" style="stop-color:#00AD7A"/>
	</linearGradient>
	<path fill="url(#SVGID_18_)" d="M389.3,186.5c0-10.1,8.2-18.3,18.3-18.3c10.1,0,18.3,8.2,18.3,18.3c0,10.1-8.2,18.3-18.3,18.3
		C397.5,204.7,389.3,196.5,389.3,186.5z"/>
	<path fill="#363433" d="M398.2,186.5c0-5.1,4.2-9.3,9.3-9.3c5.1,0,9.3,4.2,9.3,9.3c0,5.1-4.2,9.3-9.3,9.3
		C402.4,195.8,398.2,191.6,398.2,186.5z"/>
	<g>
		<path fill="#FFFFFF" d="M396.1,189.6c-1.7,0-3.1-1.4-3.1-3.1c0-8,6.5-14.5,14.5-14.5c1.7,0,3.1,1.4,3.1,3.1c0,1.7-1.4,3.1-3.1,3.1
			c-4.6,0-8.3,3.7-8.3,8.3C399.2,188.2,397.8,189.6,396.1,189.6z"/>
	</g>
	<path fill="#FFFFFF" d="M286.4,253.8c0,0,53.4,12.5,103.2,0c0,0-8.9,10.6-10.8,18.3C378.8,272.1,328.7,294.3,286.4,253.8z"/>
	<path fill="#FBC0AA" d="M286.4,253.8c42.4,40.4,92.4,18.3,92.4,18.3s-27.7,18-62.8,4.2C289.8,266,286.4,253.8,286.4,253.8z"/>
	<linearGradient id="SVGID_19_" gradientUnits="userSpaceOnUse" x1="212.3954" y1="72.6022" x2="439.4273" y2="72.6022">
		<stop  offset="0" style="stop-color:#413C3D"/>
		<stop  offset="1" style="stop-color:#413C3D"/>
	</linearGradient>
	<path fill="url(#SVGID_19_)" d="M439.4,112.3c0,0-43.3-81.3-116.1-83c-72.8-1.7-110.9,86.6-110.9,86.6s102.5-8.7,130.4-6.1
		C370.8,112.3,439.4,112.3,439.4,112.3z"/>
	<linearGradient id="SVGID_20_" gradientUnits="userSpaceOnUse" x1="251.9864" y1="147.0956" x2="302.8858" y2="96.1961">
		<stop  offset="0" style="stop-color:#A86840"/>
		<stop  offset="1" style="stop-color:#CB7D4E"/>
	</linearGradient>
	<path fill="url(#SVGID_20_)" d="M316.6,134.6c0,0-24.9-3-39.4-2.4c-14.5,0.6-34.5,5.5-34.5,5.5s-9.9-12.5-6.6-25.6
		c3.3-13.1,58.4-16.2,79.5-3.3C315.5,108.8,320.4,116.7,316.6,134.6z"/>
	<path fill="#FBC0AA" d="M242.6,137.7c0,0,20-4.9,34.5-5.5c14.5-0.6,39.4,2.4,39.4,2.4S270.9,140.2,242.6,137.7z"/>
	<linearGradient id="SVGID_21_" gradientUnits="userSpaceOnUse" x1="389.4787" y1="148.8402" x2="438.1754" y2="100.1435">
		<stop  offset="0" style="stop-color:#A86840"/>
		<stop  offset="1" style="stop-color:#CB7D4E"/>
	</linearGradient>
	<path fill="url(#SVGID_21_)" d="M377.3,136.6c0,0,23.3-2.8,36.9-2.2c13.6,0.6,32.3,5.1,32.3,5.1s9.3-11.7,6.1-23.9
		c-3.1-12.2-54.6-15.1-74.2-3.1C378.3,112.5,373.7,119.8,377.3,136.6z"/>
	<path fill="#FBC0AA" d="M377.3,136.6c0,0,23.3-2.8,36.9-2.2c13.6,0.6,32.3,5.1,32.3,5.1S412.3,140.9,377.3,136.6z"/>
	<path fill="#2C2829" d="M175.3,158.5c0,0,9.7,96.8,70.1,138C245.4,296.6,167.3,260.7,175.3,158.5z"/>
	<path fill="#FBC0AA" d="M266.7,227.6c0,6.6-7.2,12-16,12s-16-5.4-16-12c0-6.6,7.2-12,16-12S266.7,220.9,266.7,227.6z"/>
	<path fill="#FBC0AA" d="M449.6,225.7c0,4.9-5.3,8.9-11.9,8.9c-6.6,0-11.9-4-11.9-8.9c0-4.9,5.3-8.9,11.9-8.9
		C444.3,216.8,449.6,220.7,449.6,225.7z"/>
	<linearGradient id="SVGID_22_" gradientUnits="userSpaceOnUse" x1="310.5591" y1="470.294" x2="333.8845" y2="446.9687">
		<stop  offset="0" style="stop-color:#00AD7A"/>
		<stop  offset="1" style="stop-color:#6ABC9B"/>
	</linearGradient>
	<path fill="url(#SVGID_22_)" d="M336.1,465c0,4.1-3.3,7.5-7.5,7.5h-12.8c-4.1,0-7.5-3.3-7.5-7.5v-12.8c0-4.1,3.4-7.5,7.5-7.5h12.8
		c4.1,0,7.5,3.3,7.5,7.5V465z"/>
	
		<linearGradient id="SVGID_23_" gradientUnits="userSpaceOnUse" x1="473.7431" y1="358.3462" x2="497.0388" y2="307.0881" gradientTransform="matrix(0.9993 3.660000e-02 -3.660000e-02 0.9994 -22.4929 -1.5799)">
		<stop  offset="0" style="stop-color:#181314"/>
		<stop  offset="0.3594" style="stop-color:#2F2A2B"/>
		<stop  offset="0.6999" style="stop-color:#3C3738"/>
		<stop  offset="1" style="stop-color:#413C3D"/>
	</linearGradient>
	<path fill="url(#SVGID_23_)" d="M434.7,362.3c0,0-13.7-42.9,1.8-48.7c15.5-5.8,12.7,24.8,12.7,24.8s21.8,6.2,24,27.4
		C475.4,387.1,440,386.6,434.7,362.3z"/>
	<g>
		<rect x="174.1" y="335.8" fill="#E9E9EA" width="296.2" height="203.1"/>
		<g>
			<defs>
				<path id="SVGID_24_" d="M174.1,335.8v203.1h296.2V335.8H174.1z M445.3,518.6H199.2V356.1h246.2V518.6z"/>
			</defs>
			<clipPath id="SVGID_25_">
				<use xlink:href="#SVGID_24_"  overflow="visible"/>
			</clipPath>
			
				<rect x="142" y="265.4" transform="matrix(0.7073 -0.7069 0.7069 0.7073 -286.1495 240.9979)" clip-path="url(#SVGID_25_)" fill="#EF4C28" width="11.9" height="401.3"/>
			<polygon clip-path="url(#SVGID_25_)" fill="#459ECB" points="334.3,603.7 325.9,612.1 42.1,328.4 50.6,320 			"/>
			<polygon clip-path="url(#SVGID_25_)" fill="#459ECB" points="253.9,603.7 245.4,612.1 -38.3,328.4 -29.9,320 			"/>
			
				<rect x="222.5" y="265.4" transform="matrix(0.7071 -0.7071 0.7071 0.7071 -262.6216 298.0908)" clip-path="url(#SVGID_25_)" fill="#EF4C28" width="11.9" height="401.3"/>
			
				<rect x="262.8" y="265.4" transform="matrix(0.7071 -0.7071 0.7071 0.7071 -250.8207 326.5539)" clip-path="url(#SVGID_25_)" fill="#459ECB" width="11.9" height="401.3"/>
			<polygon clip-path="url(#SVGID_25_)" fill="#EF4C28" points="455.1,603.7 446.7,612.1 163,328.4 171.4,320 			"/>
			<polygon clip-path="url(#SVGID_25_)" fill="#459ECB" points="495.4,603.7 487,612.1 203.2,328.4 211.7,320 			"/>
			<polygon clip-path="url(#SVGID_25_)" fill="#EF4C28" points="535.7,603.7 527.2,612.1 243.5,328.4 251.9,320 			"/>
			<polygon clip-path="url(#SVGID_25_)" fill="#459ECB" points="576,603.7 567.5,612.1 283.8,328.4 292.2,320 			"/>
			
				<rect x="464.2" y="265.4" transform="matrix(0.7073 -0.7069 0.7069 0.7073 -191.8423 468.7628)" clip-path="url(#SVGID_25_)" fill="#EF4C28" width="11.9" height="401.3"/>
			<polygon clip-path="url(#SVGID_25_)" fill="#459ECB" points="656.5,603.7 648.1,612.1 364.3,328.4 372.8,320 			"/>
			<polygon clip-path="url(#SVGID_25_)" fill="#EF4C28" points="696.8,603.7 688.3,612.1 404.6,328.4 413,320 			"/>
			<polygon clip-path="url(#SVGID_25_)" fill="#459ECB" points="737.1,603.7 728.6,612.1 444.9,328.4 453.3,320 			"/>
			<rect x="188.2" y="347.3" clip-path="url(#SVGID_25_)" fill="none" width="268.1" height="180.2"/>
		</g>
		<polygon fill="#BFBFC0" points="322.3,456.1 201.5,356.1 322.3,468.7 443,356.1 		"/>
		<polygon opacity="0.37" fill="#A1A1A2" points="443,356.1 322.3,468.7 201.5,356.1 322.3,486.1 		"/>
		<polygon fill="#BFBFC0" points="355.8,435.2 445.3,518.6 362.7,428.8 		"/>
		<polygon fill="#BFBFC0" points="288.7,435.2 199.2,518.6 281.8,428.8 		"/>
		<g>
			<path fill="#82BC5E" d="M349.2,389.4c-1.1,0-2.6-0.6-5-1.6c-3.7-1.6-8.8-3.7-13.7-3.7v-2.5c5.4,0,10.7,2.2,14.7,3.9
				c1.7,0.7,3.4,1.4,4,1.4c1.9,0,6.9,0,10.7-2.4c4.4-2.9,8-2.9,9.2-2.9c1.5,0,4.7,0,9.5,3.2c4,2.6,7,2.1,7.1,2l0.6,2.5
				c-0.2,0-4.1,0.9-9-2.4c-4.3-2.8-6.8-2.8-8.2-2.8c-1.1,0-4.1,0-7.9,2.4C357.3,389.1,352.5,389.4,349.2,389.4z"/>
		</g>
		<g>
			<path fill="#82BC5E" d="M349.2,384c-1.1,0-2.6-0.7-5-1.6c-3.7-1.5-8.8-3.7-13.7-3.7v-2.5c5.4,0,10.7,2.2,14.7,3.9
				c1.7,0.7,3.4,1.4,4,1.4c1.9,0,6.9,0,10.7-2.5c4.4-2.9,8-2.9,9.2-2.9c1.5,0,4.6,0,9.5,3.2c4,2.6,7,2.1,7.1,2l0.6,2.5
				c-0.2,0-4.1,0.9-9-2.4c-4.3-2.8-6.8-2.8-8.2-2.8c-1.1,0-4.1,0-7.8,2.5C356.9,384,351.3,384,349.2,384z"/>
		</g>
		<g>
			<path fill="#82BC5E" d="M349.2,378.7c-1.1,0-2.6-0.6-5-1.6c-3.7-1.6-8.8-3.7-13.7-3.7v-2.5c5.4,0,10.7,2.2,14.7,3.9
				c1.7,0.7,3.4,1.4,4,1.4c1.9,0,6.9,0,10.7-2.4c4.4-2.9,8-2.9,9.2-2.9c1.5,0,4.7,0,9.5,3.2c4,2.6,7,2.1,7.1,2l0.6,2.5
				c-0.2,0-4.1,0.9-9-2.4c-4.3-2.8-6.8-2.8-8.2-2.8c-1.1,0-4.1,0-7.9,2.5C357.3,378.4,352.5,378.7,349.2,378.7z"/>
		</g>
		<g>
			<path fill="#EF4C28" d="M408,400.3c-9.7,0-17.6-7.9-17.6-17.6c0-9.7,7.9-17.6,17.6-17.6c9.7,0,17.6,7.9,17.6,17.6
				C425.6,392.5,417.7,400.3,408,400.3z M408,367.7c-8.3,0-15,6.8-15,15c0,8.3,6.7,15,15,15c8.3,0,15-6.7,15-15
				C423.1,374.5,416.3,367.7,408,367.7z"/>
		</g>
		<g>
			<path fill="#459ECB" d="M408,392.4c-5.3,0-9.6-4.3-9.6-9.6c0-5.3,4.3-9.6,9.6-9.6c5.3,0,9.6,4.3,9.6,9.6
				C417.6,388.1,413.3,392.4,408,392.4z M408,375.7c-3.9,0-7.1,3.2-7.1,7.1c0,3.9,3.2,7.1,7.1,7.1c3.9,0,7.1-3.2,7.1-7.1
				C415.1,378.9,411.9,375.7,408,375.7z"/>
		</g>
	</g>
	
		<linearGradient id="SVGID_26_" gradientUnits="userSpaceOnUse" x1="343.4005" y1="363.2291" x2="364.8218" y2="316.0953" gradientTransform="matrix(-0.9993 3.660000e-02 3.660000e-02 0.9994 522.0794 -1.5799)">
		<stop  offset="0" style="stop-color:#181314"/>
		<stop  offset="1" style="stop-color:#413C3D"/>
	</linearGradient>
	<path fill="url(#SVGID_26_)" d="M168,345.8c0,0-12.6-23.8,15.5-19.4c16.7,2.7,22.1,8.3,14.3,30.8c-7.9,22.5-16.9,23.9-27.6,21.8
		C159.5,377,165.9,355.3,168,345.8z"/>
	
		<linearGradient id="SVGID_27_" gradientUnits="userSpaceOnUse" x1="490.4325" y1="357.8425" x2="511.853" y2="310.7104" gradientTransform="matrix(0.9993 3.660000e-02 -3.660000e-02 0.9994 -22.4929 -1.5799)">
		<stop  offset="0" style="stop-color:#181314"/>
		<stop  offset="1" style="stop-color:#413C3D"/>
	</linearGradient>
	<path fill="url(#SVGID_27_)" d="M478.7,345.8c0,0,12.6-23.8-15.5-19.4c-16.7,2.7-22.1,8.3-14.3,30.8c7.9,22.5,16.9,23.9,27.6,21.8
		C487.2,377,480.9,355.3,478.7,345.8z"/>
</g>
</svg>
