<?xml version="1.0" encoding="utf-8"?>
<!-- Generator: Adobe Illustrator 18.1.1, SVG Export Plug-In . SVG Version: 6.00 Build 0)  -->
<svg version="1.1" id="Layer_1" xmlns="http://www.w3.org/2000/svg" xmlns:xlink="http://www.w3.org/1999/xlink" x="0px" y="0px"
	 viewBox="0 0 600 600" enable-background="new 0 0 600 600" xml:space="preserve">
<g>
	
		<linearGradient id="SVGID_1_" gradientUnits="userSpaceOnUse" x1="100.7376" y1="42.8836" x2="162.6911" y2="42.8836" gradientTransform="matrix(-0.7686 -0.6398 0.6397 -0.7686 318.3823 509.3058)">
		<stop  offset="0" style="stop-color:#181314"/>
		<stop  offset="1" style="stop-color:#413C3D"/>
	</linearGradient>
	<path fill="url(#SVGID_1_)" d="M218.3,375.9c0,0,49.9,2.1,65.8,7.4c15.9,5.3-30.4,35.7-57.4,30.8
		C199.6,409.3,207.8,384.4,218.3,375.9z"/>
	
		<linearGradient id="SVGID_2_" gradientUnits="userSpaceOnUse" x1="322.2874" y1="399.0598" x2="342.1066" y2="355.4514" gradientTransform="matrix(0.9704 0.2414 -0.2414 0.9704 70.1064 -61.4015)">
		<stop  offset="0" style="stop-color:#181314"/>
		<stop  offset="1" style="stop-color:#413C3D"/>
	</linearGradient>
	<path fill="url(#SVGID_2_)" d="M313.8,368.1c-4.3,0.2-4,1.2-7.8,2.3c4.1-4.5,6.1-9.5-1-12.8c-15.4-7-28.6,23.9-28.6,23.9
		c-0.1,0.6,0.6,6.1,1.2,10.6c0.6,4,3.1,7.5,6.7,9.4c28.3,14.9,41.9-5,42-15.6C326.3,369.4,313.8,368.1,313.8,368.1z"/>
	<g>
		
			<linearGradient id="SVGID_3_" gradientUnits="userSpaceOnUse" x1="247.4574" y1="406.4384" x2="281.8169" y2="330.8363" gradientTransform="matrix(0.9939 -0.1107 0.1107 0.9939 3.8454 50.0358)">
			<stop  offset="0" style="stop-color:#00AD7A"/>
			<stop  offset="1" style="stop-color:#6ABC9B"/>
		</linearGradient>
		<polygon fill="url(#SVGID_3_)" points="320.6,427.8 304,429.6 294.8,346.5 311.3,344.6 		"/>
		
			<linearGradient id="SVGID_4_" gradientUnits="userSpaceOnUse" x1="196.0383" y1="255.0281" x2="326.8142" y2="124.2523" gradientTransform="matrix(0.9939 -0.1107 0.1107 0.9939 3.8454 50.0358)">
			<stop  offset="0" style="stop-color:#8ACDF1"/>
			<stop  offset="1" style="stop-color:#AFD9F4"/>
		</linearGradient>
		<path fill="url(#SVGID_4_)" d="M310.1,333.2l-16.6,1.9L264.9,78.9c9.2-1,18.2,12.3,21.4,41.2L310.1,333.2z"/>
		<path fill="#67C3E8" d="M300.6,334.2l-7.1,0.8L266.3,91.5c3.9-0.4,7.8,5.2,9.1,17.6L300.6,334.2z"/>
		
			<linearGradient id="SVGID_5_" gradientUnits="userSpaceOnUse" x1="260.5638" y1="423.0753" x2="267.4478" y2="407.9283" gradientTransform="matrix(0.9939 -0.1107 0.1107 0.9939 3.8454 50.0358)">
			<stop  offset="0" style="stop-color:#FCAF2A"/>
			<stop  offset="0.3258" style="stop-color:#FCBA5D"/>
			<stop  offset="1" style="stop-color:#FCCFC2"/>
		</linearGradient>
		<path fill="url(#SVGID_5_)" d="M321.2,433.3c0.5,4.3-2.6,8.2-6.9,8.7l-1,0.1c-4.3,0.5-8.2-2.6-8.7-6.9l-0.6-5.6l16.6-1.9
			L321.2,433.3z"/>
		
			<linearGradient id="SVGID_6_" gradientUnits="userSpaceOnUse" x1="240.0216" y1="334.7473" x2="254.6676" y2="302.5214" gradientTransform="matrix(0.9939 -0.1107 0.1107 0.9939 3.8454 50.0358)">
			<stop  offset="0" style="stop-color:#FCAF2A"/>
			<stop  offset="0.3258" style="stop-color:#FCBA5D"/>
			<stop  offset="1" style="stop-color:#FCCFC2"/>
		</linearGradient>
		<path fill="url(#SVGID_6_)" d="M283.6,335.2c0.1,0,0.2-0.1,0.4-0.1l33.1-3.7c1.3-0.2,2.6,0.8,2.7,2.2l0.9,7.7
			c0.1,0.6-0.1,1.3-0.5,1.8c-0.4,0.5-1,0.8-1.6,0.9l-30.9,3.4c-0.6,0.1-1.3-0.1-1.8-0.5c-0.5-0.4-39.4-1-39.5-1.6L283.6,335.2z"/>
		
			<rect x="300.2" y="350.8" transform="matrix(-0.6241 0.7814 -0.7814 -0.6241 770.9185 338.3945)" fill="#FFFFFF" width="7.7" height="7.7"/>
		<polygon fill="#FFFFFF" points="300.4,371.2 305.2,365.2 311.3,370 306.4,376.1 		"/>
		<polygon fill="#FFFFFF" points="302.2,387.2 307,381.2 313,386 308.2,392.1 		"/>
		<polygon fill="#FFFFFF" points="304,403.2 308.8,397.2 314.8,402 310,408.1 		"/>
		<polygon fill="#FFFFFF" points="305.8,419.2 310.6,413.2 316.6,418 311.8,424.1 		"/>
	</g>
	
		<linearGradient id="SVGID_7_" gradientUnits="userSpaceOnUse" x1="201.6356" y1="271.5305" x2="216.7065" y2="238.3696" gradientTransform="matrix(0.7758 -0.6309 0.6309 0.7758 -6.5662 318.2843)">
		<stop  offset="0" style="stop-color:#181314"/>
		<stop  offset="1" style="stop-color:#413C3D"/>
	</linearGradient>
	<path fill="url(#SVGID_7_)" d="M317.8,402.6c0,0,10.1-7.4,8.7-20.3c-1.3-12.9-6.2-19.3-16.1-15.2c-10,4.1-4.1,13.4-3.9,18.6
		C306.8,390.9,310.3,405.6,317.8,402.6z"/>
	<path fill="#181314" d="M143.7,388.8c0,0-40.6,28.8-36.5,45.2c1.9,7.7,48.7,16.1,63.2-18.3C181,390.4,157,391.2,143.7,388.8z"/>
	
		<linearGradient id="SVGID_8_" gradientUnits="userSpaceOnUse" x1="72.5734" y1="471.1402" x2="58.0007" y2="374.0577" gradientTransform="matrix(-0.9924 -0.7334 -0.7334 0.9925 561.8294 139.209)">
		<stop  offset="0" style="stop-color:#181314"/>
		<stop  offset="1" style="stop-color:#413C3D"/>
	</linearGradient>
	<path fill="url(#SVGID_8_)" d="M187.7,477.8h-57.6c-3.9,36.3,1.6,81.5,12.1,64.7c11-17.5,33.7-35.4,33.7-35.4s10.1,1.2,18.1,0
		c0,0,30.6,17.8,41.7,35.4c10,16,18.3-20.7,4.8-59c-0.7-1.9-0.3-3.8-0.7-5.7h-57.6H187.7z"/>
	<linearGradient id="SVGID_9_" gradientUnits="userSpaceOnUse" x1="129.8292" y1="431.1937" x2="239.7248" y2="431.1937">
		<stop  offset="0" style="stop-color:#181314"/>
		<stop  offset="1" style="stop-color:#413C3D"/>
	</linearGradient>
	<path fill="url(#SVGID_9_)" d="M239.7,477.4c0-4.1-0.1-8.2-0.5-12.1c-4-47.4-19.6-81.9-19.6-81.9h-69.4c0,0-15.6,34.5-19.6,81.9
		c-0.4,4.5-0.6,9.1-0.8,13.7L239.7,477.4z"/>
	<linearGradient id="SVGID_10_" gradientUnits="userSpaceOnUse" x1="227.9322" y1="545.9156" x2="266.4846" y2="545.9156">
		<stop  offset="0" style="stop-color:#181314"/>
		<stop  offset="1" style="stop-color:#413C3D"/>
	</linearGradient>
	<path fill="url(#SVGID_10_)" d="M228,555.5c0,0-0.6-7.6,5.5-15.1c6.1-7.5,33.1-6.1,33.1,15.1H228z"/>
	<linearGradient id="SVGID_11_" gradientUnits="userSpaceOnUse" x1="114.529" y1="545.9156" x2="153.0815" y2="545.9156">
		<stop  offset="0" style="stop-color:#181314"/>
		<stop  offset="1" style="stop-color:#413C3D"/>
	</linearGradient>
	<path fill="url(#SVGID_11_)" d="M153.1,555.5c0,0,0.6-7.6-5.5-15.1c-6.1-7.5-33.1-6.1-33.1,15.1H153.1z"/>
	<linearGradient id="SVGID_12_" gradientUnits="userSpaceOnUse" x1="153.1125" y1="508.1062" x2="216.5822" y2="444.6365">
		<stop  offset="0" style="stop-color:#0F7F69"/>
		<stop  offset="1" style="stop-color:#00AD7A"/>
	</linearGradient>
	<rect x="128.5" y="469.3" fill="url(#SVGID_12_)" width="112.7" height="14.2"/>
	
		<linearGradient id="SVGID_13_" gradientUnits="userSpaceOnUse" x1="166.1488" y1="495.9546" x2="141.7035" y2="484.8445" gradientTransform="matrix(-0.8778 0.479 0.479 0.8778 104.5985 -29.0137)">
		<stop  offset="0" style="stop-color:#00AD7A"/>
		<stop  offset="1" style="stop-color:#6ABC9B"/>
	</linearGradient>
	<path fill="url(#SVGID_13_)" d="M188.5,468.7c0,0,34.4-9.9,30.3,6.2c-4.1,16.1-2.9,11-2.9,11s-3.4,19.2-28.8-9.2L188.5,468.7z"/>
	
		<linearGradient id="SVGID_14_" gradientUnits="userSpaceOnUse" x1="249.9355" y1="436.1522" x2="263.6581" y2="405.9582" gradientTransform="matrix(0.8486 0.529 -0.529 0.8486 175.3777 -16.8845)">
		<stop  offset="0" style="stop-color:#00AD7A"/>
		<stop  offset="1" style="stop-color:#6ABC9B"/>
	</linearGradient>
	<path fill="url(#SVGID_14_)" d="M186.8,470.7c0,0-33.8-11.8-30.6,4.5c3.2,16.3,2.3,11.1,2.3,11.1s2.3,19.4,29.3-7.5L186.8,470.7z"
		/>
	<linearGradient id="SVGID_15_" gradientUnits="userSpaceOnUse" x1="178.8214" y1="485.2135" x2="196.5025" y2="467.5324">
		<stop  offset="0" style="stop-color:#00AD7A"/>
		<stop  offset="1" style="stop-color:#6ABC9B"/>
	</linearGradient>
	<path fill="url(#SVGID_15_)" d="M198.2,481.2c0,3.1-2.5,5.7-5.7,5.7h-9.7c-3.1,0-5.7-2.5-5.7-5.7v-9.7c0-3.1,2.5-5.7,5.7-5.7h9.7
		c3.1,0,5.7,2.5,5.7,5.7V481.2z"/>
	
		<linearGradient id="SVGID_16_" gradientUnits="userSpaceOnUse" x1="66.6227" y1="360.0311" x2="105.3928" y2="321.2611" gradientTransform="matrix(0.9764 0.2158 -0.2158 0.9764 40.281 -30.8195)">
		<stop  offset="0" style="stop-color:#181314"/>
		<stop  offset="1" style="stop-color:#413C3D"/>
	</linearGradient>
	<path fill="url(#SVGID_16_)" d="M62.5,287.9c0,0-42.8,23.9-37.4,39.9c5.3,16,23.9,47.6,38.8-19L62.5,287.9z"/>
	
		<linearGradient id="SVGID_17_" gradientUnits="userSpaceOnUse" x1="28.8391" y1="369.4236" x2="67.0562" y2="361.6841" gradientTransform="matrix(0.933 -0.3598 0.3598 0.933 -110.2501 24.4874)">
		<stop  offset="0" style="stop-color:#181314"/>
		<stop  offset="1" style="stop-color:#413C3D"/>
	</linearGradient>
	<path fill="url(#SVGID_17_)" d="M64.3,312.7c0,0-22.4,43.5-9.1,53.9c13.3,10.4,46.2,26.4,21.8-37.3L64.3,312.7z"/>
	<linearGradient id="SVGID_18_" gradientUnits="userSpaceOnUse" x1="82.7832" y1="356.4296" x2="263.9882" y2="175.2247">
		<stop  offset="0" style="stop-color:#181314"/>
		<stop  offset="1" style="stop-color:#413C3D"/>
	</linearGradient>
	<path fill="url(#SVGID_18_)" d="M46.2,265.8c0-71.3,56.9-129.1,127.2-129.1c70.2,0,127.2,57.8,127.2,129.1
		c0,71.3-56.9,129.1-127.2,129.1C103.2,394.9,46.2,337.1,46.2,265.8z"/>
	<linearGradient id="SVGID_19_" gradientUnits="userSpaceOnUse" x1="124.0835" y1="339.9898" x2="251.7603" y2="212.313">
		<stop  offset="0" style="stop-color:#FCCCB6"/>
		<stop  offset="1" style="stop-color:#FFE6CE"/>
	</linearGradient>
	<path fill="url(#SVGID_19_)" d="M283.2,278.7c3.9-68.1-37.2-54.6-80.9-54.6c-43.7,0-130.4-9.6-115,57.2c0,0,14.4,79.6,108.5,79.6
		C271.4,360.9,283.2,278.7,283.2,278.7z"/>
	<path fill="#544E4F" d="M195.9,360.9c75.6,0,87.3-82.2,87.3-82.2c3.9-68.1-37.2-54.6-80.9-54.6c0,0,23-5.7,32.8-6.6
		c30.2-2.7,64.9,10.2,52,69.5C269.4,368.3,195.9,360.9,195.9,360.9z"/>
	<linearGradient id="SVGID_20_" gradientUnits="userSpaceOnUse" x1="130.7618" y1="292.4019" x2="169.1372" y2="254.0266">
		<stop  offset="0" style="stop-color:#EFEFF0"/>
		<stop  offset="0.1212" style="stop-color:#F5F5F5"/>
		<stop  offset="0.4301" style="stop-color:#FDFDFD"/>
		<stop  offset="1" style="stop-color:#FFFFFF"/>
	</linearGradient>
	<path fill="url(#SVGID_20_)" d="M122.8,273.2c0-15,12.1-27.1,27.1-27.1c15,0,27.1,12.1,27.1,27.1c0,15-12.1,27.1-27.1,27.1
		C135,300.3,122.8,288.2,122.8,273.2z"/>
	<linearGradient id="SVGID_21_" gradientUnits="userSpaceOnUse" x1="150.3801" y1="280.4321" x2="169.9568" y2="260.8555">
		<stop  offset="0" style="stop-color:#0F7F69"/>
		<stop  offset="1" style="stop-color:#00AD7A"/>
	</linearGradient>
	<path fill="url(#SVGID_21_)" d="M146.3,270.6c0-7.6,6.2-13.8,13.8-13.8c7.6,0,13.8,6.2,13.8,13.8c0,7.6-6.2,13.8-13.8,13.8
		C152.5,284.5,146.3,278.3,146.3,270.6z"/>
	<path fill="#363433" d="M153.1,270.6c0-3.9,3.2-7.1,7.1-7.1c3.9,0,7.1,3.2,7.1,7.1c0,3.9-3.2,7.1-7.1,7.1
		C156.3,277.7,153.1,274.5,153.1,270.6z"/>
	<g>
		<path fill="#FFFFFF" d="M151.5,273c-1.3,0-2.3-1-2.3-2.3c0-6.1,4.9-11,11-11c1.3,0,2.3,1,2.3,2.3c0,1.3-1,2.3-2.3,2.3
			c-3.5,0-6.3,2.8-6.3,6.3C153.8,271.9,152.8,273,151.5,273z"/>
	</g>
	<linearGradient id="SVGID_22_" gradientUnits="userSpaceOnUse" x1="227.0629" y1="292.4019" x2="265.4383" y2="254.0265">
		<stop  offset="0" style="stop-color:#EFEFF0"/>
		<stop  offset="0.1212" style="stop-color:#F5F5F5"/>
		<stop  offset="0.4301" style="stop-color:#FDFDFD"/>
		<stop  offset="1" style="stop-color:#FFFFFF"/>
	</linearGradient>
	<path fill="url(#SVGID_22_)" d="M219.1,273.2c0-15,12.1-27.1,27.1-27.1c15,0,27.1,12.1,27.1,27.1c0,15-12.1,27.1-27.1,27.1
		C231.3,300.3,219.1,288.2,219.1,273.2z"/>
	<linearGradient id="SVGID_23_" gradientUnits="userSpaceOnUse" x1="246.6875" y1="280.4312" x2="266.2624" y2="260.8564">
		<stop  offset="0" style="stop-color:#0F7F69"/>
		<stop  offset="1" style="stop-color:#00AD7A"/>
	</linearGradient>
	<circle fill="url(#SVGID_23_)" cx="256.5" cy="270.6" r="13.8"/>
	<path fill="#363433" d="M249.4,270.6c0-3.9,3.2-7.1,7.1-7.1c3.9,0,7.1,3.2,7.1,7.1c0,3.9-3.2,7.1-7.1,7.1
		C252.6,277.7,249.4,274.5,249.4,270.6z"/>
	<g>
		<path fill="#FFFFFF" d="M247.8,273c-1.3,0-2.3-1-2.3-2.3c0-6.1,4.9-11,11-11c1.3,0,2.3,1,2.3,2.3c0,1.3-1,2.3-2.3,2.3
			c-3.5,0-6.3,2.8-6.3,6.3C250.2,271.9,249.1,273,247.8,273z"/>
	</g>
	<linearGradient id="SVGID_24_" gradientUnits="userSpaceOnUse" x1="96.9636" y1="184.3313" x2="269.0732" y2="184.3313">
		<stop  offset="0" style="stop-color:#413C3D"/>
		<stop  offset="1" style="stop-color:#413C3D"/>
	</linearGradient>
	<path fill="url(#SVGID_24_)" d="M269.1,214.5c0,0-32.8-61.7-88-62.9c-55.2-1.3-84.1,65.6-84.1,65.6s77.7-6.6,98.9-4.6
		C217.1,214.5,269.1,214.5,269.1,214.5z"/>
	
		<linearGradient id="SVGID_25_" gradientUnits="userSpaceOnUse" x1="165.4042" y1="280.6404" x2="203.9935" y2="242.0511" gradientTransform="matrix(0.9652 0.2618 -0.2619 0.9651 46.3006 -72.2423)">
		<stop  offset="0" style="stop-color:#A86840"/>
		<stop  offset="1" style="stop-color:#CB7D4E"/>
	</linearGradient>
	<path fill="url(#SVGID_25_)" d="M182.2,245.6c0,0-17.6-7.1-28.4-9.6c-10.7-2.4-26.4-2.8-26.4-2.8s-4.7-11.1,0.3-20
		c5-8.9,46-0.3,58.8,13.3C186.5,226.5,188.6,233.2,182.2,245.6z"/>
	<path fill="#FBC0AA" d="M127.5,233.2c0,0,15.6,0.4,26.4,2.8c10.8,2.4,28.4,9.6,28.4,9.6S147.7,240.6,127.5,233.2z"/>
	
		<linearGradient id="SVGID_26_" gradientUnits="userSpaceOnUse" x1="204.4014" y1="221.9152" x2="241.3162" y2="185.0004" gradientTransform="matrix(0.9665 -0.2561 0.2562 0.9666 -25.2192 87.2899)">
		<stop  offset="0" style="stop-color:#A86840"/>
		<stop  offset="1" style="stop-color:#CB7D4E"/>
	</linearGradient>
	<path fill="url(#SVGID_26_)" d="M217.9,242.9c0,0,16.5-6.6,26.6-8.8c10.1-2.2,24.6-2.5,24.6-2.5s4.5-10.4-0.2-18.7
		c-4.7-8.4-43-0.5-55,12.1C213.9,225,212,231.3,217.9,242.9z"/>
	<path fill="#FBC0AA" d="M217.9,242.9c0,0,16.5-6.6,26.6-8.8c10.1-2.2,24.6-2.5,24.6-2.5S244.4,239.2,217.9,242.9z"/>
	<path fill="#2C2829" d="M68.9,249.5c0,0,7.3,73.4,53.1,104.6C122,354.1,62.8,326.9,68.9,249.5z"/>
	<ellipse fill="#FBC0AA" cx="126" cy="301.8" rx="12.2" ry="9.1"/>
	<path fill="#FBC0AA" d="M276.8,300.3c0,3.7-4,6.7-9,6.7c-5,0-9-3-9-6.7c0-3.7,4-6.7,9-6.7C272.8,293.6,276.8,296.6,276.8,300.3z"/>
	<path fill="#F3AB89" d="M204.7,324.5c1-5.5,5-9.3,8.9-8.6c3.9,0.7,6.2,5.8,5.1,11.3c-1,5.5-5,9.3-8.9,8.6S203.7,330,204.7,324.5z"
		/>
	<g>
		
			<linearGradient id="SVGID_27_" gradientUnits="userSpaceOnUse" x1="628.6088" y1="588.829" x2="662.9716" y2="513.2198" gradientTransform="matrix(0.1815 0.9834 -0.9834 0.1815 556.711 -282.3705)">
			<stop  offset="0" style="stop-color:#00AD7A"/>
			<stop  offset="1" style="stop-color:#6ABC9B"/>
		</linearGradient>
		<polygon fill="url(#SVGID_27_)" points="92.4,468.5 89.4,452.1 171.7,436.9 174.7,453.3 		"/>
		
			<linearGradient id="SVGID_28_" gradientUnits="userSpaceOnUse" x1="577.1987" y1="437.4128" x2="707.9824" y2="306.6291" gradientTransform="matrix(0.1815 0.9834 -0.9834 0.1815 556.711 -282.3705)">
			<stop  offset="0" style="stop-color:#8ACDF1"/>
			<stop  offset="1" style="stop-color:#AFD9F4"/>
		</linearGradient>
		<path fill="url(#SVGID_28_)" d="M186,451.2l-3-16.4l253.4-46.8c1.7,9.1-10.9,19-39.6,24.3L186,451.2z"/>
		<path fill="#67C3E8" d="M184.3,441.8l-1.3-7l240.9-44.5c0.7,3.9-4.7,8.1-16.9,10.4L184.3,441.8z"/>
		
			<linearGradient id="SVGID_29_" gradientUnits="userSpaceOnUse" x1="641.7198" y1="605.4626" x2="648.6034" y2="590.3166" gradientTransform="matrix(0.1815 0.9834 -0.9834 0.1815 556.711 -282.3705)">
			<stop  offset="0" style="stop-color:#FCAF2A"/>
			<stop  offset="0.3258" style="stop-color:#FCBA5D"/>
			<stop  offset="1" style="stop-color:#FCCFC2"/>
		</linearGradient>
		<path fill="url(#SVGID_29_)" d="M86.9,469.5c-4.3,0.8-8.4-2-9.2-6.3l-0.2-0.9c-0.4-2.1,0.1-4.2,1.3-5.9c1.2-1.7,3-2.9,5.1-3.3
			l5.5-1l3,16.4L86.9,469.5z"/>
		
			<linearGradient id="SVGID_30_" gradientUnits="userSpaceOnUse" x1="640.6625" y1="514.4025" x2="650.9407" y2="491.7872" gradientTransform="matrix(0.1815 0.9834 -0.9834 0.1815 556.711 -282.3705)">
			<stop  offset="0" style="stop-color:#FCAF2A"/>
			<stop  offset="0.3258" style="stop-color:#FCBA5D"/>
			<stop  offset="1" style="stop-color:#FCCFC2"/>
		</linearGradient>
		<path fill="url(#SVGID_30_)" d="M179.7,425.6c0.6-0.1,1.3,0,1.8,0.4c0.5,0.4,0.9,0.9,1,1.6l5.6,30.5c0.2,1.3-0.6,2.6-2,2.9
			l-7.7,1.4c-0.6,0.1-1.3,0-1.8-0.4c-0.5-0.4-0.9-0.9-1-1.6l-5.6-30.5c-0.1-0.6,0-1.3,0.4-1.8c0.4-0.5,0.9-0.9,1.6-1L179.7,425.6z"
			/>
		
			<rect x="160.3" y="442.9" transform="matrix(-0.8234 -0.5675 0.5675 -0.8234 45.8448 907.8274)" fill="#FFFFFF" width="7.7" height="7.7"/>
		<polygon fill="#FFFFFF" points="147.4,444.3 153.7,448.7 149.3,455.1 143,450.7 		"/>
		<polygon fill="#FFFFFF" points="131.5,447.3 137.9,451.6 133.5,458 127.2,453.6 		"/>
		<polygon fill="#FFFFFF" points="115.7,450.2 122.1,454.6 117.7,460.9 111.3,456.5 		"/>
		<polygon fill="#FFFFFF" points="99.9,453.1 106.2,457.5 101.9,463.8 95.5,459.5 		"/>
	</g>
	
		<linearGradient id="SVGID_31_" gradientUnits="userSpaceOnUse" x1="503.1904" y1="490.0446" x2="526.7518" y2="438.202" gradientTransform="matrix(1.560000e-02 0.9999 -1.0001 1.580000e-02 581.0527 -76.7431)">
		<stop  offset="0" style="stop-color:#181314"/>
		<stop  offset="1" style="stop-color:#413C3D"/>
	</linearGradient>
	<path fill="url(#SVGID_31_)" d="M157.5,439.5c3.4-19.7-36.1-24.4-36.1-24.4c-3.8,0-8.7,2.1-12.5,4.1c-3.8,2-6.6,5.5-7.7,9.8
		c-9.3,38.5,14.2,50.3,28.2,45c2.6-1,4-3.1,4.7-5.4c2.9,3.7,6.7,6,11,0.6c5.5-7,2.6-18.2-2.6-26.9L157.5,439.5z"/>
	<path fill="#DCDDDE" d="M424,424.1c0,0,4.9,37.5,0,68.2c0,0-2.3-47.5-6.8-66.6L424,424.1z"/>
	<path fill="#DCDDDE" d="M402.8,429.6c0,0,4.9,30,0,54.6c0,0-2.3-38.1-6.8-53.3L402.8,429.6z"/>
	<path fill="#DCDDDE" d="M379.2,435c0,0,4.9,22.8,0,41.5c0,0-2.3-29-6.8-40.5L379.2,435z"/>
	<path fill="#DCDDDE" d="M304.4,96.1c0,0,37.8-0.1,67.6,8.6c0,0-47.4-3.8-66.9-1.7L304.4,96.1z"/>
	<path fill="#DCDDDE" d="M307.2,117.8c0,0,30.4-1.1,54.2,6.9c0,0-38-2.6-53.7,0L307.2,117.8z"/>
	<path fill="#DCDDDE" d="M309.5,141.9c0,0,23.3-2,41.2,5.3c0,0-29-1.4-41.1,1.6L309.5,141.9z"/>
	<g>
		<path fill="#FFEAD0" d="M339.7,187.6c0,0,74.3,78.9,164.9,164.9C504.5,352.4,404.8,245.4,339.7,187.6z"/>
		<path fill="#FFEAD0" d="M372.1,155.1c0,0,74.3,78.9,164.9,164.9C537,320,437.2,213,372.1,155.1z"/>
		<path fill="#FFEAD0" d="M404.6,122.7c0,0,74.3,78.9,164.9,164.9C569.4,287.5,469.7,180.5,404.6,122.7z"/>
		<path fill="#FFEAD0" d="M504.5,122.1c0,0-78.9,74.3-164.9,164.9C339.7,286.9,446.7,187.2,504.5,122.1z"/>
		<path fill="#FFEAD0" d="M537,154.5c0,0-78.9,74.3-164.9,164.9C372.1,319.4,479.1,219.7,537,154.5z"/>
		<path fill="#FFEAD0" d="M569.4,187c0,0-78.9,74.3-164.9,164.9C404.6,351.8,511.6,252.1,569.4,187z"/>
	</g>
</g>
<g>
	
		<linearGradient id="SVGID_32_" gradientUnits="userSpaceOnUse" x1="980.1042" y1="1492.4651" x2="1007.3121" y2="1451.3967" gradientTransform="matrix(-0.506 -0.8625 0.8625 -0.506 -278.7829 1880.3062)">
		<stop  offset="0" style="stop-color:#181314"/>
		<stop  offset="1" style="stop-color:#413C3D"/>
	</linearGradient>
	<path fill="url(#SVGID_32_)" d="M498.8,300.8c-11.3,6.6-25.8,2.8-32.4-8.4c-6.6-11.3-2.8-25.8,8.4-32.4l12.9-7.3l23.9,40.8
		L498.8,300.8z"/>
	
		<linearGradient id="SVGID_33_" gradientUnits="userSpaceOnUse" x1="979.2436" y1="1504.6064" x2="1005.3849" y2="1465.1479" gradientTransform="matrix(-0.506 -0.8625 0.8625 -0.506 -278.7829 1880.3062)">
		<stop  offset="0" style="stop-color:#181314"/>
		<stop  offset="1" style="stop-color:#413C3D"/>
	</linearGradient>
	<circle fill="url(#SVGID_33_)" cx="499.8" cy="273.1" r="23.7"/>
	<circle fill="#FFFFFF" cx="499.8" cy="273.1" r="17.8"/>
	
		<linearGradient id="SVGID_34_" gradientUnits="userSpaceOnUse" x1="982.8423" y1="1484.8771" x2="1001.7861" y2="1484.8771" gradientTransform="matrix(-0.506 -0.8625 0.8625 -0.506 -278.7829 1880.3062)">
		<stop  offset="0" style="stop-color:#EE3524"/>
		<stop  offset="1" style="stop-color:#F07243"/>
	</linearGradient>
	<circle fill="url(#SVGID_34_)" cx="499.8" cy="273.1" r="9.5"/>
</g>
<g>
	
		<linearGradient id="SVGID_35_" gradientUnits="userSpaceOnUse" x1="-349.2257" y1="885.0563" x2="-322.0176" y2="843.9877" gradientTransform="matrix(9.860000e-02 0.9951 -0.9951 9.860000e-02 1316.028 498.8914)">
		<stop  offset="0" style="stop-color:#181314"/>
		<stop  offset="1" style="stop-color:#413C3D"/>
	</linearGradient>
	<path fill="url(#SVGID_35_)" d="M422.1,225.2c13-1.3,24.6,8.2,25.9,21.2c1.3,13-8.2,24.6-21.2,25.9l-14.8,1.2l-4.7-47.1
		L422.1,225.2z"/>
	
		<linearGradient id="SVGID_36_" gradientUnits="userSpaceOnUse" x1="-350.0861" y1="897.1973" x2="-323.9449" y2="857.7388" gradientTransform="matrix(9.860000e-02 0.9951 -0.9951 9.860000e-02 1316.028 498.8914)">
		<stop  offset="0" style="stop-color:#181314"/>
		<stop  offset="1" style="stop-color:#413C3D"/>
	</linearGradient>
	<circle fill="url(#SVGID_36_)" cx="409.6" cy="250" r="23.7"/>
	<circle fill="#FFFFFF" cx="409.6" cy="250" r="17.8"/>
	
		<linearGradient id="SVGID_37_" gradientUnits="userSpaceOnUse" x1="-346.4872" y1="877.4683" x2="-327.5438" y2="877.4683" gradientTransform="matrix(9.860000e-02 0.9951 -0.9951 9.860000e-02 1316.028 498.8914)">
		<stop  offset="0" style="stop-color:#EE3524"/>
		<stop  offset="1" style="stop-color:#F07243"/>
	</linearGradient>
	<circle fill="url(#SVGID_37_)" cx="409.6" cy="250" r="9.5"/>
</g>
<g>
	
		<linearGradient id="SVGID_38_" gradientUnits="userSpaceOnUse" x1="1173.9651" y1="766.7443" x2="1201.1711" y2="725.6787" gradientTransform="matrix(0.421 -0.9071 0.9071 0.421 -714.0934 955.7073)">
		<stop  offset="0" style="stop-color:#181314"/>
		<stop  offset="1" style="stop-color:#413C3D"/>
	</linearGradient>
	<path fill="url(#SVGID_38_)" d="M450.5,214.3c-11.9-5.5-17-19.6-11.5-31.4c5.5-11.9,19.6-17,31.4-11.5l13.4,6.5L464,220.8
		L450.5,214.3z"/>
	
		<linearGradient id="SVGID_39_" gradientUnits="userSpaceOnUse" x1="1173.1044" y1="778.8848" x2="1199.2439" y2="739.4291" gradientTransform="matrix(0.421 -0.9071 0.9071 0.421 -714.0934 955.7073)">
		<stop  offset="0" style="stop-color:#181314"/>
		<stop  offset="1" style="stop-color:#413C3D"/>
	</linearGradient>
	<circle fill="url(#SVGID_39_)" cx="473.9" cy="199.3" r="23.7"/>
	<circle fill="#FFFFFF" cx="473.9" cy="199.3" r="17.8"/>
	
		<linearGradient id="SVGID_40_" gradientUnits="userSpaceOnUse" x1="1176.7029" y1="759.1569" x2="1195.6453" y2="759.1569" gradientTransform="matrix(0.421 -0.9071 0.9071 0.421 -714.0934 955.7073)">
		<stop  offset="0" style="stop-color:#EE3524"/>
		<stop  offset="1" style="stop-color:#F07243"/>
	</linearGradient>
	<circle fill="url(#SVGID_40_)" cx="473.9" cy="199.3" r="9.5"/>
</g>
</svg>
